{
 "cells": [
  {
   "cell_type": "code",
   "execution_count": 1,
   "id": "4bcdc7f1-94d0-433b-a2a1-87f0ddf87714",
   "metadata": {},
   "outputs": [],
   "source": [
    "import numpy as np\n",
    "import matplotlib.pyplot as plt\n",
    "import cartopy.crs as ccrs\n",
    "import cartopy.feature as cfeature\n",
    "from matplotlib.animation import FuncAnimation, FFMpegWriter\n",
    "import os\n",
    "from matplotlib.gridspec import GridSpec\n",
    "import subprocess\n",
    "import multiprocessing"
   ]
  },
  {
   "cell_type": "code",
   "execution_count": 2,
   "id": "ab84f3cd-437a-4ae4-a9f9-923802c339f9",
   "metadata": {},
   "outputs": [],
   "source": [
    "\n",
    "# === Setup constants ===\n",
    "SolarConstant = 1367\n",
    "LATS = np.linspace(-90, 90, 180)\n",
    "LONS = np.linspace(-180, 180, 360)\n",
    "lon_grid, lat_grid = np.meshgrid(LONS, LATS)\n",
    "lat_rad = np.radians(lat_grid)\n",
    "events = {\n",
    "    79:  \"Vernal Equinox\",\n",
    "    172: \"Summer Solstice\",\n",
    "    266: \"Autumnal Equinox\",\n",
    "    355: \"Winter Solstice\"\n",
    "}\n",
    "\n",
    "MONTH_DAYS = [31, 28, 31, 30, 31, 30, 31, 31, 30, 31, 30, 31]\n",
    "MONTH_NAMES = [\"Jan\", \"Feb\", \"Mar\", \"Apr\", \"May\", \"Jun\",\n",
    "               \"Jul\", \"Aug\", \"Sep\", \"Oct\", \"Nov\", \"Dec\"]\n",
    "\n",
    "# === Solar and geometry functions ===\n",
    "def solar_declination(day):\n",
    "    return np.radians(23.44) * np.sin(2 * np.pi * (day - 81) / 365.0)\n",
    "\n",
    "def calculate_zenith_cosine(decl, utc_hour):\n",
    "    lst = utc_hour + lon_grid / 15.0\n",
    "    hra = np.radians(15 * (lst - 12))\n",
    "    cos_zenith = np.sin(lat_rad) * np.sin(decl) + \\\n",
    "                 np.cos(lat_rad) * np.cos(decl) * np.cos(hra)\n",
    "    return np.clip(cos_zenith, 0, 1)\n",
    "\n",
    "def get_subsolar_point(day, hour):\n",
    "    decl = solar_declination(day)\n",
    "    lat = np.degrees(decl)\n",
    "    lon = -15 * (hour - 12)\n",
    "    return lat, lon, decl\n",
    "\n",
    "titles_text = [\"North Pole (AE)\", \"South Pole (AE)\", \"Global\"]\n",
    "\n",
    "# === Main function to render monthly frames ===\n",
    "def render_month(month_index,):\n",
    "    start_day = sum(MONTH_DAYS[:month_index]) + 1\n",
    "    end_day = start_day + MONTH_DAYS[month_index] - 1\n",
    "    output_dir = f\"frames_{MONTH_NAMES[month_index]}\"\n",
    "    os.makedirs(output_dir, exist_ok=True)\n",
    "\n",
    "    for day in range(start_day, end_day + 1):\n",
    "        for hour in range(0, 24, 3):\n",
    "            frame = (day - 1) * 24 + hour\n",
    "            lat, lon, decl = get_subsolar_point(day, hour)\n",
    "            cos_zenith = calculate_zenith_cosine(decl, hour)\n",
    "\n",
    "            projections = [\n",
    "                ccrs.AzimuthalEquidistant(central_longitude=0, central_latitude=90),\n",
    "                ccrs.AzimuthalEquidistant(central_longitude=0, central_latitude=-90),\n",
    "                ccrs.Mollweide(central_longitude= 0 )\n",
    "            ]\n",
    "\n",
    "            fig = plt.figure(figsize=(12, 8))\n",
    "            gs = GridSpec(2, 2, height_ratios=[1.2, 1])\n",
    "\n",
    "            # Top row: AE maps side by side\n",
    "            ax1 = plt.subplot(gs[0, 0], projection=projections[0])\n",
    "            ax2 = plt.subplot(gs[0, 1], projection=projections[1])\n",
    "\n",
    "            # Bottom row: Mollweide spanning both columns\n",
    "            ax3 = plt.subplot(gs[1, :], projection=projections[2])\n",
    "\n",
    "            axes = [ax1, ax2, ax3]\n",
    "\n",
    "            \n",
    "\n",
    "            for i, ax in enumerate(axes):\n",
    "                ax.set_global()\n",
    "                ax.coastlines()\n",
    "                ax.add_feature(cfeature.BORDERS, linewidth=0.5)\n",
    "                ax.gridlines(draw_labels=False, linewidth=0.3, linestyle='--')\n",
    "                mesh = ax.pcolormesh(\n",
    "                    LONS, LATS, SolarConstant*cos_zenith, transform=ccrs.PlateCarree(),\n",
    "                    cmap='inferno', shading='auto', vmin=0, vmax=SolarConstant\n",
    "                )\n",
    "                ax.plot(lon, lat, 'o', color='yellow', transform=ccrs.PlateCarree(), zorder=5)\n",
    "                ax.set_title(f\"{titles_text[i]}\", fontsize=10)\n",
    "\n",
    "            cb_ax = fig.add_axes([0.125, 0.05, 0.75, 0.03])\n",
    "            cb = plt.colorbar(mesh, cax=cb_ax, orientation='horizontal')\n",
    "            ticks = [0, 200, 400, 600, 800, 1000, 1200]\n",
    "            cb.set_ticks(ticks)\n",
    "            cb.set_label(\"Estimated Solar Irradiance (W/m$^{2}$)\")\n",
    "            \n",
    "            if day in events:\n",
    "                fig.suptitle(f\"Sunlight Distribution on Day {day} — {hour:02d}:00 UTC\\n\" + events[day],\n",
    "                    fontsize=14, ha='center', y=0.95)\n",
    "            else:\n",
    "                fig.suptitle(f\"Sunlight Distribution on Day {day} — {hour:02d}:00 UTC\",\n",
    "                    fontsize=14, ha='center', y=0.95)\n",
    "            \n",
    "            filename = os.path.join(output_dir, f\"frame_{day:03d}_{hour:02d}.png\")\n",
    "            fig.savefig(filename, dpi=100, bbox_inches='tight')\n",
    "            plt.close(fig)\n",
    "    print(f\"{MONTH_NAMES[month_index]} Done!\")\n"
   ]
  },
  {
   "cell_type": "code",
   "execution_count": 3,
   "id": "60fcf007-bceb-46e4-a5b3-d539fde92690",
   "metadata": {},
   "outputs": [
    {
     "name": "stdout",
     "output_type": "stream",
     "text": [
      "Feb Done!\n",
      "Sep Done!\n",
      "Jun Done!\n",
      "Apr Done!\n",
      "Nov Done!\n",
      "May Done!\n",
      "Oct Done!\n",
      "Jan Done!\n",
      "Mar Done!\n",
      "Dec Done!\n",
      "Jul Done!\n",
      "Aug Done!\n"
     ]
    }
   ],
   "source": [
    "def main():\n",
    "    with multiprocessing.Pool() as pool:\n",
    "        pool.map(render_month, range(12))  # Renders months 0–11 in parallel\n",
    "\n",
    "if __name__ == \"__main__\":\n",
    "    main()\n"
   ]
  },
  {
   "cell_type": "markdown",
   "id": "f2ca3064-0741-4f1f-9222-0873287e60e8",
   "metadata": {},
   "source": [
    "---"
   ]
  },
  {
   "cell_type": "markdown",
   "id": "75e8fbfb-8757-45e8-b50e-fb631ff5567c",
   "metadata": {},
   "source": [
    "# Prepare for Combination"
   ]
  },
  {
   "cell_type": "code",
   "execution_count": 5,
   "id": "26e7901e-1afa-48ff-aa7b-89bb0afc3285",
   "metadata": {},
   "outputs": [],
   "source": [
    "def generate_frame_list(month, events):\n",
    "\n",
    "    month_dir = f\"frames_{month}\"\n",
    "    frame_files = sorted(\n",
    "        [f for f in os.listdir(month_dir) if f.endswith(\".png\")],\n",
    "        key=lambda name: tuple(int(x) for x in name.replace(\".png\", \"\").split(\"_\")[1:])\n",
    "    )\n",
    "    frame_list_path = f\"{month_dir}/frame_list.txt\"\n",
    "\n",
    "    with open(frame_list_path, \"w\") as f:\n",
    "        for i, frame in enumerate(frame_files):\n",
    "            full_path = os.path.abspath(os.path.join(month_dir, frame))\n",
    "            parts = frame.split(\"_\")\n",
    "            try:\n",
    "                day = int(parts[1])\n",
    "            except (IndexError, ValueError):\n",
    "                day = None\n",
    "\n",
    "            # Number of duplicates (1 means just original, >1 means duplicates)\n",
    "            num_copies = 3 if day in events else 1\n",
    "            duration = 0.075\n",
    "\n",
    "            for copy_idx in range(num_copies):\n",
    "                f.write(f\"file '{full_path}'\\n\")\n",
    "\n",
    "                # Write duration after every frame except the very last one overall\n",
    "                # Calculate if this is the last file line overall\n",
    "                is_last_file = (i == len(frame_files) - 1) and (copy_idx == num_copies - 1)\n",
    "                if not is_last_file:\n",
    "                    f.write(f\"duration {duration}\\n\")\n",
    "\n",
    "    return frame_list_path"
   ]
  },
  {
   "cell_type": "code",
   "execution_count": 6,
   "id": "ecaf08bf-89e0-4f85-99c5-ae292aa78673",
   "metadata": {
    "scrolled": true
   },
   "outputs": [
    {
     "name": "stdout",
     "output_type": "stream",
     "text": [
      "Generating video for Jan\n"
     ]
    },
    {
     "name": "stderr",
     "output_type": "stream",
     "text": [
      "ffmpeg version 6.1.1 Copyright (c) 2000-2023 the FFmpeg developers\n",
      "  built with gcc 12.3.0 (conda-forge gcc 12.3.0-3)\n",
      "  configuration: --prefix=/home/conda/feedstock_root/build_artifacts/ffmpeg_1703992514465/_h_env_placehold_placehold_placehold_placehold_placehold_placehold_placehold_placehold_placehold_placehold_placehold_placehold_placehold_placehold_placehold_placehold_placehold_placehold_plac --cc=/home/conda/feedstock_root/build_artifacts/ffmpeg_1703992514465/_build_env/bin/x86_64-conda-linux-gnu-cc --cxx=/home/conda/feedstock_root/build_artifacts/ffmpeg_1703992514465/_build_env/bin/x86_64-conda-linux-gnu-c++ --nm=/home/conda/feedstock_root/build_artifacts/ffmpeg_1703992514465/_build_env/bin/x86_64-conda-linux-gnu-nm --ar=/home/conda/feedstock_root/build_artifacts/ffmpeg_1703992514465/_build_env/bin/x86_64-conda-linux-gnu-ar --disable-doc --disable-openssl --enable-demuxer=dash --enable-hardcoded-tables --enable-libfreetype --enable-libharfbuzz --enable-libfontconfig --enable-libopenh264 --enable-libdav1d --enable-gnutls --enable-libmp3lame --enable-libvpx --enable-libass --enable-pthreads --enable-vaapi --enable-gpl --enable-libx264 --enable-libx265 --enable-libaom --enable-libsvtav1 --enable-libxml2 --enable-pic --enable-shared --disable-static --enable-version3 --enable-zlib --enable-libopus --pkg-config=/home/conda/feedstock_root/build_artifacts/ffmpeg_1703992514465/_build_env/bin/pkg-config\n",
      "  libavutil      58. 29.100 / 58. 29.100\n",
      "  libavcodec     60. 31.102 / 60. 31.102\n",
      "  libavformat    60. 16.100 / 60. 16.100\n",
      "  libavdevice    60.  3.100 / 60.  3.100\n",
      "  libavfilter     9. 12.100 /  9. 12.100\n",
      "  libswscale      7.  5.100 /  7.  5.100\n",
      "  libswresample   4. 12.100 /  4. 12.100\n",
      "  libpostproc    57.  3.100 / 57.  3.100\n",
      "Input #0, concat, from 'frames_Jan/frame_list.txt':\n",
      "  Duration: N/A, start: 0.000000, bitrate: N/A\n",
      "  Stream #0:0: Video: png, rgba(pc, gbr/unknown/unknown), 924x788 [SAR 3937:3937 DAR 231:197], 25 fps, 25 tbr, 25 tbn\n",
      "Stream mapping:\n",
      "  Stream #0:0 -> #0:0 (png (native) -> h264 (libx264))\n",
      "Press [q] to stop, [?] for help\n",
      "[libx264 @ 0x55ad3ee7f9c0] using SAR=2970/3077\n",
      "[libx264 @ 0x55ad3ee7f9c0] using cpu capabilities: MMX2 SSE2Fast SSSE3 SSE4.2 AVX FMA3 BMI2 AVX2 AVX512\n",
      "[libx264 @ 0x55ad3ee7f9c0] profile High, level 3.1, 4:2:0, 8-bit\n",
      "[libx264 @ 0x55ad3ee7f9c0] 264 - core 164 r3095 baee400 - H.264/MPEG-4 AVC codec - Copyleft 2003-2022 - http://www.videolan.org/x264.html - options: cabac=1 ref=3 deblock=1:0:0 analyse=0x3:0x113 me=hex subme=7 psy=1 psy_rd=1.00:0.00 mixed_ref=1 me_range=16 chroma_me=1 trellis=1 8x8dct=1 cqm=0 deadzone=21,11 fast_pskip=1 chroma_qp_offset=-2 threads=24 lookahead_threads=4 sliced_threads=0 nr=0 decimate=1 interlaced=0 bluray_compat=0 constrained_intra=0 bframes=3 b_pyramid=2 b_adapt=1 b_bias=0 direct=1 weightb=1 open_gop=0 weightp=2 keyint=250 keyint_min=25 scenecut=40 intra_refresh=0 rc_lookahead=40 rc=abr mbtree=1 bitrate=750 ratetol=1.0 qcomp=0.60 qpmin=0 qpmax=69 qpstep=4 ip_ratio=1.40 aq=1:1.00\n",
      "Output #0, mp4, to 'month_Jan.mp4':\n",
      "  Metadata:\n",
      "    encoder         : Lavf60.16.100\n",
      "  Stream #0:0: Video: h264 (avc1 / 0x31637661), yuv420p(tv, progressive), 950x782 [SAR 90321:93575 DAR 231:197], q=2-31, 750 kb/s, 25 fps, 12800 tbn\n",
      "    Metadata:\n",
      "      encoder         : Lavc60.31.102 libx264\n",
      "    Side data:\n",
      "      cpb: bitrate max/min/avg: 0/0/750000 buffer size: 0 vbv_delay: N/A\n",
      "[out#0/mp4 @ 0x55ad3ee7d880] video:1612kB audio:0kB subtitle:0kB other streams:0kB global headers:0kB muxing overhead: 0.264229%\n",
      "frame=  248 fps= 32 q=-1.0 Lsize=    1616kB time=00:00:18.36 bitrate= 721.1kbits/s speed= 2.4x    \n",
      "[libx264 @ 0x55ad3ee7f9c0] frame I:1     Avg QP:26.34  size: 26028\n",
      "[libx264 @ 0x55ad3ee7f9c0] frame P:62    Avg QP:25.53  size:  1988\n",
      "[libx264 @ 0x55ad3ee7f9c0] frame B:185   Avg QP:31.60  size:  8111\n",
      "[libx264 @ 0x55ad3ee7f9c0] consecutive B-frames:  0.4%  0.0%  1.2% 98.4%\n",
      "[libx264 @ 0x55ad3ee7f9c0] mb I  I16..4: 14.3% 62.2% 23.5%\n",
      "[libx264 @ 0x55ad3ee7f9c0] mb P  I16..4:  0.4%  1.2%  0.2%  P16..4: 29.8%  0.4%  0.6%  0.0%  0.0%    skip:67.3%\n",
      "[libx264 @ 0x55ad3ee7f9c0] mb B  I16..4:  1.6%  1.6%  1.5%  B16..8:  9.2%  2.5%  1.4%  direct: 5.2%  skip:77.1%  L0:49.0% L1:44.6% BI: 6.4%\n",
      "[libx264 @ 0x55ad3ee7f9c0] final ratefactor: 24.53\n",
      "[libx264 @ 0x55ad3ee7f9c0] 8x8 transform intra:39.7% inter:79.8%\n",
      "[libx264 @ 0x55ad3ee7f9c0] coded y,uvDC,uvAC intra: 45.2% 77.3% 58.7% inter: 6.9% 9.8% 4.6%\n",
      "[libx264 @ 0x55ad3ee7f9c0] i16 v,h,dc,p: 10% 11%  4% 75%\n",
      "[libx264 @ 0x55ad3ee7f9c0] i8 v,h,dc,ddl,ddr,vr,hd,vl,hu: 19% 10% 32%  4%  9%  7%  8%  6%  3%\n",
      "[libx264 @ 0x55ad3ee7f9c0] i4 v,h,dc,ddl,ddr,vr,hd,vl,hu: 24% 14% 17%  7%  9% 10%  7%  8%  5%\n",
      "[libx264 @ 0x55ad3ee7f9c0] i8c dc,h,v,p: 34% 14% 18% 35%\n",
      "[libx264 @ 0x55ad3ee7f9c0] Weighted P-Frames: Y:0.0% UV:0.0%\n",
      "[libx264 @ 0x55ad3ee7f9c0] ref P L0:  4.0%  0.2% 16.2% 79.6%\n",
      "[libx264 @ 0x55ad3ee7f9c0] ref B L0: 81.4% 14.9%  3.7%\n",
      "[libx264 @ 0x55ad3ee7f9c0] ref B L1: 94.1%  5.9%\n",
      "[libx264 @ 0x55ad3ee7f9c0] kb/s:709.57\n",
      "ffmpeg version 6.1.1 Copyright (c) 2000-2023 the FFmpeg developers\n",
      "  built with gcc 12.3.0 (conda-forge gcc 12.3.0-3)\n",
      "  configuration: --prefix=/home/conda/feedstock_root/build_artifacts/ffmpeg_1703992514465/_h_env_placehold_placehold_placehold_placehold_placehold_placehold_placehold_placehold_placehold_placehold_placehold_placehold_placehold_placehold_placehold_placehold_placehold_placehold_plac --cc=/home/conda/feedstock_root/build_artifacts/ffmpeg_1703992514465/_build_env/bin/x86_64-conda-linux-gnu-cc --cxx=/home/conda/feedstock_root/build_artifacts/ffmpeg_1703992514465/_build_env/bin/x86_64-conda-linux-gnu-c++ --nm=/home/conda/feedstock_root/build_artifacts/ffmpeg_1703992514465/_build_env/bin/x86_64-conda-linux-gnu-nm --ar=/home/conda/feedstock_root/build_artifacts/ffmpeg_1703992514465/_build_env/bin/x86_64-conda-linux-gnu-ar --disable-doc --disable-openssl --enable-demuxer=dash --enable-hardcoded-tables --enable-libfreetype --enable-libharfbuzz --enable-libfontconfig --enable-libopenh264 --enable-libdav1d --enable-gnutls --enable-libmp3lame --enable-libvpx --enable-libass --enable-pthreads --enable-vaapi --enable-gpl --enable-libx264 --enable-libx265 --enable-libaom --enable-libsvtav1 --enable-libxml2 --enable-pic --enable-shared --disable-static --enable-version3 --enable-zlib --enable-libopus --pkg-config=/home/conda/feedstock_root/build_artifacts/ffmpeg_1703992514465/_build_env/bin/pkg-config\n",
      "  libavutil      58. 29.100 / 58. 29.100\n",
      "  libavcodec     60. 31.102 / 60. 31.102\n",
      "  libavformat    60. 16.100 / 60. 16.100\n",
      "  libavdevice    60.  3.100 / 60.  3.100\n",
      "  libavfilter     9. 12.100 /  9. 12.100\n",
      "  libswscale      7.  5.100 /  7.  5.100\n",
      "  libswresample   4. 12.100 /  4. 12.100\n",
      "  libpostproc    57.  3.100 / 57.  3.100\n",
      "Input #0, concat, from 'frames_Feb/frame_list.txt':\n",
      "  Duration: N/A, start: 0.000000, bitrate: N/A\n",
      "  Stream #0:0: Video: png, rgba(pc, gbr/unknown/unknown), 924x788 [SAR 3937:3937 DAR 231:197], 25 fps, 25 tbr, 25 tbn\n",
      "Stream mapping:\n",
      "  Stream #0:0 -> #0:0 (png (native) -> h264 (libx264))\n",
      "Press [q] to stop, [?] for help\n"
     ]
    },
    {
     "name": "stdout",
     "output_type": "stream",
     "text": [
      "Generating video for Feb\n"
     ]
    },
    {
     "name": "stderr",
     "output_type": "stream",
     "text": [
      "[libx264 @ 0x563d111af7c0] using SAR=2970/3077\n",
      "[libx264 @ 0x563d111af7c0] using cpu capabilities: MMX2 SSE2Fast SSSE3 SSE4.2 AVX FMA3 BMI2 AVX2 AVX512\n",
      "[libx264 @ 0x563d111af7c0] profile High, level 3.1, 4:2:0, 8-bit\n",
      "[libx264 @ 0x563d111af7c0] 264 - core 164 r3095 baee400 - H.264/MPEG-4 AVC codec - Copyleft 2003-2022 - http://www.videolan.org/x264.html - options: cabac=1 ref=3 deblock=1:0:0 analyse=0x3:0x113 me=hex subme=7 psy=1 psy_rd=1.00:0.00 mixed_ref=1 me_range=16 chroma_me=1 trellis=1 8x8dct=1 cqm=0 deadzone=21,11 fast_pskip=1 chroma_qp_offset=-2 threads=24 lookahead_threads=4 sliced_threads=0 nr=0 decimate=1 interlaced=0 bluray_compat=0 constrained_intra=0 bframes=3 b_pyramid=2 b_adapt=1 b_bias=0 direct=1 weightb=1 open_gop=0 weightp=2 keyint=250 keyint_min=25 scenecut=40 intra_refresh=0 rc_lookahead=40 rc=abr mbtree=1 bitrate=750 ratetol=1.0 qcomp=0.60 qpmin=0 qpmax=69 qpstep=4 ip_ratio=1.40 aq=1:1.00\n",
      "Output #0, mp4, to 'month_Feb.mp4':\n",
      "  Metadata:\n",
      "    encoder         : Lavf60.16.100\n",
      "  Stream #0:0: Video: h264 (avc1 / 0x31637661), yuv420p(tv, progressive), 950x782 [SAR 90321:93575 DAR 231:197], q=2-31, 750 kb/s, 25 fps, 12800 tbn\n",
      "    Metadata:\n",
      "      encoder         : Lavc60.31.102 libx264\n",
      "    Side data:\n",
      "      cpb: bitrate max/min/avg: 0/0/750000 buffer size: 0 vbv_delay: N/A\n",
      "[out#0/mp4 @ 0x563d111ad680] video:1448kB audio:0kB subtitle:0kB other streams:0kB global headers:0kB muxing overhead: 0.271409%\n",
      "frame=  224 fps= 28 q=-1.0 Lsize=    1452kB time=00:00:16.56 bitrate= 718.4kbits/s speed=2.09x    \n",
      "[libx264 @ 0x563d111af7c0] frame I:1     Avg QP:26.46  size: 25496\n",
      "[libx264 @ 0x563d111af7c0] frame P:56    Avg QP:26.10  size:  2346\n",
      "[libx264 @ 0x563d111af7c0] frame B:167   Avg QP:32.03  size:  7937\n",
      "[libx264 @ 0x563d111af7c0] consecutive B-frames:  0.4%  0.0%  1.3% 98.2%\n",
      "[libx264 @ 0x563d111af7c0] mb I  I16..4: 20.1% 56.9% 23.0%\n",
      "[libx264 @ 0x563d111af7c0] mb P  I16..4:  0.5%  1.3%  0.3%  P16..4: 30.8%  0.6%  0.8%  0.0%  0.0%    skip:65.7%\n",
      "[libx264 @ 0x563d111af7c0] mb B  I16..4:  1.7%  1.7%  1.5%  B16..8:  9.1%  2.5%  1.3%  direct: 5.1%  skip:77.0%  L0:49.4% L1:44.4% BI: 6.2%\n",
      "[libx264 @ 0x563d111af7c0] final ratefactor: 24.90\n",
      "[libx264 @ 0x563d111af7c0] 8x8 transform intra:39.8% inter:79.3%\n",
      "[libx264 @ 0x563d111af7c0] coded y,uvDC,uvAC intra: 44.1% 77.2% 56.6% inter: 7.1% 10.1% 4.3%\n",
      "[libx264 @ 0x563d111af7c0] i16 v,h,dc,p: 15% 10%  3% 71%\n",
      "[libx264 @ 0x563d111af7c0] i8 v,h,dc,ddl,ddr,vr,hd,vl,hu: 21%  8% 32%  4%  8%  7%  8%  7%  3%\n",
      "[libx264 @ 0x563d111af7c0] i4 v,h,dc,ddl,ddr,vr,hd,vl,hu: 24% 13% 18%  7%  9% 10%  7%  8%  5%\n",
      "[libx264 @ 0x563d111af7c0] i8c dc,h,v,p: 35% 12% 19% 34%\n",
      "[libx264 @ 0x563d111af7c0] Weighted P-Frames: Y:0.0% UV:0.0%\n",
      "[libx264 @ 0x563d111af7c0] ref P L0:  4.1%  0.1% 17.7% 78.2%\n",
      "[libx264 @ 0x563d111af7c0] ref B L0: 81.7% 14.5%  3.8%\n",
      "[libx264 @ 0x563d111af7c0] ref B L1: 93.7%  6.3%\n",
      "[libx264 @ 0x563d111af7c0] kb/s:705.86\n",
      "ffmpeg version 6.1.1 Copyright (c) 2000-2023 the FFmpeg developers\n",
      "  built with gcc 12.3.0 (conda-forge gcc 12.3.0-3)\n",
      "  configuration: --prefix=/home/conda/feedstock_root/build_artifacts/ffmpeg_1703992514465/_h_env_placehold_placehold_placehold_placehold_placehold_placehold_placehold_placehold_placehold_placehold_placehold_placehold_placehold_placehold_placehold_placehold_placehold_placehold_plac --cc=/home/conda/feedstock_root/build_artifacts/ffmpeg_1703992514465/_build_env/bin/x86_64-conda-linux-gnu-cc --cxx=/home/conda/feedstock_root/build_artifacts/ffmpeg_1703992514465/_build_env/bin/x86_64-conda-linux-gnu-c++ --nm=/home/conda/feedstock_root/build_artifacts/ffmpeg_1703992514465/_build_env/bin/x86_64-conda-linux-gnu-nm --ar=/home/conda/feedstock_root/build_artifacts/ffmpeg_1703992514465/_build_env/bin/x86_64-conda-linux-gnu-ar --disable-doc --disable-openssl --enable-demuxer=dash --enable-hardcoded-tables --enable-libfreetype --enable-libharfbuzz --enable-libfontconfig --enable-libopenh264 --enable-libdav1d --enable-gnutls --enable-libmp3lame --enable-libvpx --enable-libass --enable-pthreads --enable-vaapi --enable-gpl --enable-libx264 --enable-libx265 --enable-libaom --enable-libsvtav1 --enable-libxml2 --enable-pic --enable-shared --disable-static --enable-version3 --enable-zlib --enable-libopus --pkg-config=/home/conda/feedstock_root/build_artifacts/ffmpeg_1703992514465/_build_env/bin/pkg-config\n",
      "  libavutil      58. 29.100 / 58. 29.100\n",
      "  libavcodec     60. 31.102 / 60. 31.102\n",
      "  libavformat    60. 16.100 / 60. 16.100\n",
      "  libavdevice    60.  3.100 / 60.  3.100\n",
      "  libavfilter     9. 12.100 /  9. 12.100\n",
      "  libswscale      7.  5.100 /  7.  5.100\n",
      "  libswresample   4. 12.100 /  4. 12.100\n",
      "  libpostproc    57.  3.100 / 57.  3.100\n",
      "Input #0, concat, from 'frames_Mar/frame_list.txt':\n",
      "  Duration: N/A, start: 0.000000, bitrate: N/A\n",
      "  Stream #0:0: Video: png, rgba(pc, gbr/unknown/unknown), 924x788 [SAR 3937:3937 DAR 231:197], 25 fps, 25 tbr, 25 tbn\n",
      "Stream mapping:\n",
      "  Stream #0:0 -> #0:0 (png (native) -> h264 (libx264))\n",
      "Press [q] to stop, [?] for help\n"
     ]
    },
    {
     "name": "stdout",
     "output_type": "stream",
     "text": [
      "Generating video for Mar\n"
     ]
    },
    {
     "name": "stderr",
     "output_type": "stream",
     "text": [
      "[libx264 @ 0x55888d6cee80] using SAR=2970/3077\n",
      "[libx264 @ 0x55888d6cee80] using cpu capabilities: MMX2 SSE2Fast SSSE3 SSE4.2 AVX FMA3 BMI2 AVX2 AVX512\n",
      "[libx264 @ 0x55888d6cee80] profile High, level 3.1, 4:2:0, 8-bit\n",
      "[libx264 @ 0x55888d6cee80] 264 - core 164 r3095 baee400 - H.264/MPEG-4 AVC codec - Copyleft 2003-2022 - http://www.videolan.org/x264.html - options: cabac=1 ref=3 deblock=1:0:0 analyse=0x3:0x113 me=hex subme=7 psy=1 psy_rd=1.00:0.00 mixed_ref=1 me_range=16 chroma_me=1 trellis=1 8x8dct=1 cqm=0 deadzone=21,11 fast_pskip=1 chroma_qp_offset=-2 threads=24 lookahead_threads=4 sliced_threads=0 nr=0 decimate=1 interlaced=0 bluray_compat=0 constrained_intra=0 bframes=3 b_pyramid=2 b_adapt=1 b_bias=0 direct=1 weightb=1 open_gop=0 weightp=2 keyint=250 keyint_min=25 scenecut=40 intra_refresh=0 rc_lookahead=40 rc=abr mbtree=1 bitrate=750 ratetol=1.0 qcomp=0.60 qpmin=0 qpmax=69 qpstep=4 ip_ratio=1.40 aq=1:1.00\n",
      "Output #0, mp4, to 'month_Mar.mp4':\n",
      "  Metadata:\n",
      "    encoder         : Lavf60.16.100\n",
      "  Stream #0:0: Video: h264 (avc1 / 0x31637661), yuv420p(tv, progressive), 950x782 [SAR 90321:93575 DAR 231:197], q=2-31, 750 kb/s, 25 fps, 12800 tbn\n",
      "    Metadata:\n",
      "      encoder         : Lavc60.31.102 libx264\n",
      "    Side data:\n",
      "      cpb: bitrate max/min/avg: 0/0/750000 buffer size: 0 vbv_delay: N/A\n",
      "[out#0/mp4 @ 0x55888d6bbf40] video:1780kB audio:0kB subtitle:0kB other streams:0kB global headers:0kB muxing overhead: 0.251339%\n",
      "frame=  264 fps= 33 q=-1.0 Lsize=    1784kB time=00:00:19.56 bitrate= 747.3kbits/s speed=2.43x    \n",
      "[libx264 @ 0x55888d6cee80] frame I:2     Avg QP:23.53  size: 36834\n",
      "[libx264 @ 0x55888d6cee80] frame P:67    Avg QP:25.82  size:  4576\n",
      "[libx264 @ 0x55888d6cee80] frame B:195   Avg QP:30.92  size:  7393\n",
      "[libx264 @ 0x55888d6cee80] consecutive B-frames:  1.5%  0.0%  0.0% 98.5%\n",
      "[libx264 @ 0x55888d6cee80] mb I  I16..4: 11.8% 60.9% 27.3%\n",
      "[libx264 @ 0x55888d6cee80] mb P  I16..4:  0.8%  1.8%  1.3%  P16..4: 29.5%  0.9%  1.0%  0.0%  0.0%    skip:64.7%\n",
      "[libx264 @ 0x55888d6cee80] mb B  I16..4:  1.7%  1.5%  1.4%  B16..8:  8.9%  2.1%  1.1%  direct: 4.6%  skip:78.7%  L0:49.0% L1:44.9% BI: 6.2%\n",
      "[libx264 @ 0x55888d6cee80] final ratefactor: 25.17\n",
      "[libx264 @ 0x55888d6cee80] 8x8 transform intra:40.0% inter:80.3%\n",
      "[libx264 @ 0x55888d6cee80] coded y,uvDC,uvAC intra: 45.0% 72.8% 54.6% inter: 6.9% 9.5% 4.3%\n",
      "[libx264 @ 0x55888d6cee80] i16 v,h,dc,p: 13% 10%  4% 73%\n",
      "[libx264 @ 0x55888d6cee80] i8 v,h,dc,ddl,ddr,vr,hd,vl,hu: 23%  9% 35%  4%  8%  6%  6%  6%  3%\n",
      "[libx264 @ 0x55888d6cee80] i4 v,h,dc,ddl,ddr,vr,hd,vl,hu: 23% 14% 18%  7%  9%  9%  7%  8%  5%\n",
      "[libx264 @ 0x55888d6cee80] i8c dc,h,v,p: 38% 11% 17% 34%\n",
      "[libx264 @ 0x55888d6cee80] Weighted P-Frames: Y:0.0% UV:0.0%\n",
      "[libx264 @ 0x55888d6cee80] ref P L0:  6.3%  0.7% 20.3% 72.7%\n",
      "[libx264 @ 0x55888d6cee80] ref B L0: 82.7% 13.8%  3.5%\n",
      "[libx264 @ 0x55888d6cee80] ref B L1: 93.7%  6.3%\n",
      "[libx264 @ 0x55888d6cee80] kb/s:736.13\n",
      "ffmpeg version 6.1.1 Copyright (c) 2000-2023 the FFmpeg developers\n",
      "  built with gcc 12.3.0 (conda-forge gcc 12.3.0-3)\n",
      "  configuration: --prefix=/home/conda/feedstock_root/build_artifacts/ffmpeg_1703992514465/_h_env_placehold_placehold_placehold_placehold_placehold_placehold_placehold_placehold_placehold_placehold_placehold_placehold_placehold_placehold_placehold_placehold_placehold_placehold_plac --cc=/home/conda/feedstock_root/build_artifacts/ffmpeg_1703992514465/_build_env/bin/x86_64-conda-linux-gnu-cc --cxx=/home/conda/feedstock_root/build_artifacts/ffmpeg_1703992514465/_build_env/bin/x86_64-conda-linux-gnu-c++ --nm=/home/conda/feedstock_root/build_artifacts/ffmpeg_1703992514465/_build_env/bin/x86_64-conda-linux-gnu-nm --ar=/home/conda/feedstock_root/build_artifacts/ffmpeg_1703992514465/_build_env/bin/x86_64-conda-linux-gnu-ar --disable-doc --disable-openssl --enable-demuxer=dash --enable-hardcoded-tables --enable-libfreetype --enable-libharfbuzz --enable-libfontconfig --enable-libopenh264 --enable-libdav1d --enable-gnutls --enable-libmp3lame --enable-libvpx --enable-libass --enable-pthreads --enable-vaapi --enable-gpl --enable-libx264 --enable-libx265 --enable-libaom --enable-libsvtav1 --enable-libxml2 --enable-pic --enable-shared --disable-static --enable-version3 --enable-zlib --enable-libopus --pkg-config=/home/conda/feedstock_root/build_artifacts/ffmpeg_1703992514465/_build_env/bin/pkg-config\n",
      "  libavutil      58. 29.100 / 58. 29.100\n",
      "  libavcodec     60. 31.102 / 60. 31.102\n",
      "  libavformat    60. 16.100 / 60. 16.100\n",
      "  libavdevice    60.  3.100 / 60.  3.100\n",
      "  libavfilter     9. 12.100 /  9. 12.100\n",
      "  libswscale      7.  5.100 /  7.  5.100\n",
      "  libswresample   4. 12.100 /  4. 12.100\n",
      "  libpostproc    57.  3.100 / 57.  3.100\n",
      "Input #0, concat, from 'frames_Apr/frame_list.txt':\n",
      "  Duration: N/A, start: 0.000000, bitrate: N/A\n",
      "  Stream #0:0: Video: png, rgba(pc, gbr/unknown/unknown), 924x788 [SAR 3937:3937 DAR 231:197], 25 fps, 25 tbr, 25 tbn\n",
      "Stream mapping:\n",
      "  Stream #0:0 -> #0:0 (png (native) -> h264 (libx264))\n",
      "Press [q] to stop, [?] for help\n"
     ]
    },
    {
     "name": "stdout",
     "output_type": "stream",
     "text": [
      "Generating video for Apr\n"
     ]
    },
    {
     "name": "stderr",
     "output_type": "stream",
     "text": [
      "[libx264 @ 0x55b87c49d3c0] using SAR=2970/3077\n",
      "[libx264 @ 0x55b87c49d3c0] using cpu capabilities: MMX2 SSE2Fast SSSE3 SSE4.2 AVX FMA3 BMI2 AVX2 AVX512\n",
      "[libx264 @ 0x55b87c49d3c0] profile High, level 3.1, 4:2:0, 8-bit\n",
      "[libx264 @ 0x55b87c49d3c0] 264 - core 164 r3095 baee400 - H.264/MPEG-4 AVC codec - Copyleft 2003-2022 - http://www.videolan.org/x264.html - options: cabac=1 ref=3 deblock=1:0:0 analyse=0x3:0x113 me=hex subme=7 psy=1 psy_rd=1.00:0.00 mixed_ref=1 me_range=16 chroma_me=1 trellis=1 8x8dct=1 cqm=0 deadzone=21,11 fast_pskip=1 chroma_qp_offset=-2 threads=24 lookahead_threads=4 sliced_threads=0 nr=0 decimate=1 interlaced=0 bluray_compat=0 constrained_intra=0 bframes=3 b_pyramid=2 b_adapt=1 b_bias=0 direct=1 weightb=1 open_gop=0 weightp=2 keyint=250 keyint_min=25 scenecut=40 intra_refresh=0 rc_lookahead=40 rc=abr mbtree=1 bitrate=750 ratetol=1.0 qcomp=0.60 qpmin=0 qpmax=69 qpstep=4 ip_ratio=1.40 aq=1:1.00\n",
      "Output #0, mp4, to 'month_Apr.mp4':\n",
      "  Metadata:\n",
      "    encoder         : Lavf60.16.100\n",
      "  Stream #0:0: Video: h264 (avc1 / 0x31637661), yuv420p(tv, progressive), 950x782 [SAR 90321:93575 DAR 231:197], q=2-31, 750 kb/s, 25 fps, 12800 tbn\n",
      "    Metadata:\n",
      "      encoder         : Lavc60.31.102 libx264\n",
      "    Side data:\n",
      "      cpb: bitrate max/min/avg: 0/0/750000 buffer size: 0 vbv_delay: N/A\n",
      "[out#0/mp4 @ 0x55b87c49b280] video:1561kB audio:0kB subtitle:0kB other streams:0kB global headers:0kB muxing overhead: 0.265845%\n",
      "frame=  240 fps= 30 q=-1.0 Lsize=    1565kB time=00:00:17.76 bitrate= 721.9kbits/s speed=2.24x    \n",
      "[libx264 @ 0x55b87c49d3c0] frame I:1     Avg QP:26.78  size: 25236\n",
      "[libx264 @ 0x55b87c49d3c0] frame P:60    Avg QP:26.32  size:  2405\n",
      "[libx264 @ 0x55b87c49d3c0] frame B:179   Avg QP:31.86  size:  7978\n",
      "[libx264 @ 0x55b87c49d3c0] consecutive B-frames:  0.4%  0.0%  1.2% 98.3%\n",
      "[libx264 @ 0x55b87c49d3c0] mb I  I16..4: 16.3% 59.8% 23.9%\n",
      "[libx264 @ 0x55b87c49d3c0] mb P  I16..4:  0.3%  1.5%  0.2%  P16..4: 31.7%  0.7%  0.9%  0.0%  0.0%    skip:64.6%\n",
      "[libx264 @ 0x55b87c49d3c0] mb B  I16..4:  1.7%  1.5%  1.5%  B16..8:  9.4%  2.4%  1.2%  direct: 5.1%  skip:77.2%  L0:49.7% L1:44.3% BI: 6.0%\n",
      "[libx264 @ 0x55b87c49d3c0] final ratefactor: 25.35\n",
      "[libx264 @ 0x55b87c49d3c0] 8x8 transform intra:39.4% inter:79.3%\n",
      "[libx264 @ 0x55b87c49d3c0] coded y,uvDC,uvAC intra: 44.7% 76.2% 56.2% inter: 7.3% 10.2% 4.5%\n",
      "[libx264 @ 0x55b87c49d3c0] i16 v,h,dc,p: 12%  7%  3% 79%\n",
      "[libx264 @ 0x55b87c49d3c0] i8 v,h,dc,ddl,ddr,vr,hd,vl,hu: 20%  8% 37%  4%  8%  7%  7%  6%  3%\n",
      "[libx264 @ 0x55b87c49d3c0] i4 v,h,dc,ddl,ddr,vr,hd,vl,hu: 23% 13% 18%  8%  9% 10%  7%  8%  5%\n",
      "[libx264 @ 0x55b87c49d3c0] i8c dc,h,v,p: 35% 11% 18% 36%\n",
      "[libx264 @ 0x55b87c49d3c0] Weighted P-Frames: Y:0.0% UV:0.0%\n",
      "[libx264 @ 0x55b87c49d3c0] ref P L0:  3.9%  0.2% 18.6% 77.3%\n",
      "[libx264 @ 0x55b87c49d3c0] ref B L0: 81.4% 15.2%  3.4%\n",
      "[libx264 @ 0x55b87c49d3c0] ref B L1: 94.1%  5.9%\n",
      "[libx264 @ 0x55b87c49d3c0] kb/s:710.04\n",
      "ffmpeg version 6.1.1 Copyright (c) 2000-2023 the FFmpeg developers\n",
      "  built with gcc 12.3.0 (conda-forge gcc 12.3.0-3)\n",
      "  configuration: --prefix=/home/conda/feedstock_root/build_artifacts/ffmpeg_1703992514465/_h_env_placehold_placehold_placehold_placehold_placehold_placehold_placehold_placehold_placehold_placehold_placehold_placehold_placehold_placehold_placehold_placehold_placehold_placehold_plac --cc=/home/conda/feedstock_root/build_artifacts/ffmpeg_1703992514465/_build_env/bin/x86_64-conda-linux-gnu-cc --cxx=/home/conda/feedstock_root/build_artifacts/ffmpeg_1703992514465/_build_env/bin/x86_64-conda-linux-gnu-c++ --nm=/home/conda/feedstock_root/build_artifacts/ffmpeg_1703992514465/_build_env/bin/x86_64-conda-linux-gnu-nm --ar=/home/conda/feedstock_root/build_artifacts/ffmpeg_1703992514465/_build_env/bin/x86_64-conda-linux-gnu-ar --disable-doc --disable-openssl --enable-demuxer=dash --enable-hardcoded-tables --enable-libfreetype --enable-libharfbuzz --enable-libfontconfig --enable-libopenh264 --enable-libdav1d --enable-gnutls --enable-libmp3lame --enable-libvpx --enable-libass --enable-pthreads --enable-vaapi --enable-gpl --enable-libx264 --enable-libx265 --enable-libaom --enable-libsvtav1 --enable-libxml2 --enable-pic --enable-shared --disable-static --enable-version3 --enable-zlib --enable-libopus --pkg-config=/home/conda/feedstock_root/build_artifacts/ffmpeg_1703992514465/_build_env/bin/pkg-config\n",
      "  libavutil      58. 29.100 / 58. 29.100\n",
      "  libavcodec     60. 31.102 / 60. 31.102\n",
      "  libavformat    60. 16.100 / 60. 16.100\n",
      "  libavdevice    60.  3.100 / 60.  3.100\n",
      "  libavfilter     9. 12.100 /  9. 12.100\n",
      "  libswscale      7.  5.100 /  7.  5.100\n",
      "  libswresample   4. 12.100 /  4. 12.100\n",
      "  libpostproc    57.  3.100 / 57.  3.100\n",
      "Input #0, concat, from 'frames_May/frame_list.txt':\n",
      "  Duration: N/A, start: 0.000000, bitrate: N/A\n",
      "  Stream #0:0: Video: png, rgba(pc, gbr/unknown/unknown), 924x788 [SAR 3937:3937 DAR 231:197], 25 fps, 25 tbr, 25 tbn\n",
      "Stream mapping:\n",
      "  Stream #0:0 -> #0:0 (png (native) -> h264 (libx264))\n",
      "Press [q] to stop, [?] for help\n"
     ]
    },
    {
     "name": "stdout",
     "output_type": "stream",
     "text": [
      "Generating video for May\n"
     ]
    },
    {
     "name": "stderr",
     "output_type": "stream",
     "text": [
      "[libx264 @ 0x5567631be9c0] using SAR=2970/3077\n",
      "[libx264 @ 0x5567631be9c0] using cpu capabilities: MMX2 SSE2Fast SSSE3 SSE4.2 AVX FMA3 BMI2 AVX2 AVX512\n",
      "[libx264 @ 0x5567631be9c0] profile High, level 3.1, 4:2:0, 8-bit\n",
      "[libx264 @ 0x5567631be9c0] 264 - core 164 r3095 baee400 - H.264/MPEG-4 AVC codec - Copyleft 2003-2022 - http://www.videolan.org/x264.html - options: cabac=1 ref=3 deblock=1:0:0 analyse=0x3:0x113 me=hex subme=7 psy=1 psy_rd=1.00:0.00 mixed_ref=1 me_range=16 chroma_me=1 trellis=1 8x8dct=1 cqm=0 deadzone=21,11 fast_pskip=1 chroma_qp_offset=-2 threads=24 lookahead_threads=4 sliced_threads=0 nr=0 decimate=1 interlaced=0 bluray_compat=0 constrained_intra=0 bframes=3 b_pyramid=2 b_adapt=1 b_bias=0 direct=1 weightb=1 open_gop=0 weightp=2 keyint=250 keyint_min=25 scenecut=40 intra_refresh=0 rc_lookahead=40 rc=abr mbtree=1 bitrate=750 ratetol=1.0 qcomp=0.60 qpmin=0 qpmax=69 qpstep=4 ip_ratio=1.40 aq=1:1.00\n",
      "Output #0, mp4, to 'month_May.mp4':\n",
      "  Metadata:\n",
      "    encoder         : Lavf60.16.100\n",
      "  Stream #0:0: Video: h264 (avc1 / 0x31637661), yuv420p(tv, progressive), 950x782 [SAR 90321:93575 DAR 231:197], q=2-31, 750 kb/s, 25 fps, 12800 tbn\n",
      "    Metadata:\n",
      "      encoder         : Lavc60.31.102 libx264\n",
      "    Side data:\n",
      "      cpb: bitrate max/min/avg: 0/0/750000 buffer size: 0 vbv_delay: N/A\n",
      "[out#0/mp4 @ 0x5567631bc880] video:1608kB audio:0kB subtitle:0kB other streams:0kB global headers:0kB muxing overhead: 0.264768%\n",
      "frame=  248 fps= 29 q=-1.0 Lsize=    1613kB time=00:00:18.36 bitrate= 719.6kbits/s speed=2.18x    \n",
      "[libx264 @ 0x5567631be9c0] frame I:1     Avg QP:26.81  size: 27136\n",
      "[libx264 @ 0x5567631be9c0] frame P:62    Avg QP:26.26  size:  2061\n",
      "[libx264 @ 0x5567631be9c0] frame B:185   Avg QP:31.82  size:  8062\n",
      "[libx264 @ 0x5567631be9c0] consecutive B-frames:  0.4%  0.0%  1.2% 98.4%\n",
      "[libx264 @ 0x5567631be9c0] mb I  I16..4: 13.8% 62.0% 24.1%\n",
      "[libx264 @ 0x5567631be9c0] mb P  I16..4:  0.3%  1.5%  0.2%  P16..4: 30.0%  0.5%  0.6%  0.0%  0.0%    skip:66.9%\n",
      "[libx264 @ 0x5567631be9c0] mb B  I16..4:  1.5%  1.4%  1.4%  B16..8:  9.3%  2.3%  1.3%  direct: 5.5%  skip:77.3%  L0:50.0% L1:44.5% BI: 5.5%\n",
      "[libx264 @ 0x5567631be9c0] final ratefactor: 25.35\n",
      "[libx264 @ 0x5567631be9c0] 8x8 transform intra:40.3% inter:79.3%\n",
      "[libx264 @ 0x5567631be9c0] coded y,uvDC,uvAC intra: 44.5% 74.9% 55.8% inter: 7.2% 9.9% 4.9%\n",
      "[libx264 @ 0x5567631be9c0] i16 v,h,dc,p: 10%  9%  3% 79%\n",
      "[libx264 @ 0x5567631be9c0] i8 v,h,dc,ddl,ddr,vr,hd,vl,hu: 19%  9% 38%  4%  8%  7%  6%  5%  3%\n",
      "[libx264 @ 0x5567631be9c0] i4 v,h,dc,ddl,ddr,vr,hd,vl,hu: 23% 13% 19%  7%  9% 10%  7%  8%  5%\n",
      "[libx264 @ 0x5567631be9c0] i8c dc,h,v,p: 38% 12% 17% 33%\n",
      "[libx264 @ 0x5567631be9c0] Weighted P-Frames: Y:0.0% UV:0.0%\n",
      "[libx264 @ 0x5567631be9c0] ref P L0:  3.8%  0.2% 15.9% 80.1%\n",
      "[libx264 @ 0x5567631be9c0] ref B L0: 80.9% 15.8%  3.3%\n",
      "[libx264 @ 0x5567631be9c0] ref B L1: 94.8%  5.2%\n",
      "[libx264 @ 0x5567631be9c0] kb/s:708.13\n",
      "ffmpeg version 6.1.1 Copyright (c) 2000-2023 the FFmpeg developers\n",
      "  built with gcc 12.3.0 (conda-forge gcc 12.3.0-3)\n",
      "  configuration: --prefix=/home/conda/feedstock_root/build_artifacts/ffmpeg_1703992514465/_h_env_placehold_placehold_placehold_placehold_placehold_placehold_placehold_placehold_placehold_placehold_placehold_placehold_placehold_placehold_placehold_placehold_placehold_placehold_plac --cc=/home/conda/feedstock_root/build_artifacts/ffmpeg_1703992514465/_build_env/bin/x86_64-conda-linux-gnu-cc --cxx=/home/conda/feedstock_root/build_artifacts/ffmpeg_1703992514465/_build_env/bin/x86_64-conda-linux-gnu-c++ --nm=/home/conda/feedstock_root/build_artifacts/ffmpeg_1703992514465/_build_env/bin/x86_64-conda-linux-gnu-nm --ar=/home/conda/feedstock_root/build_artifacts/ffmpeg_1703992514465/_build_env/bin/x86_64-conda-linux-gnu-ar --disable-doc --disable-openssl --enable-demuxer=dash --enable-hardcoded-tables --enable-libfreetype --enable-libharfbuzz --enable-libfontconfig --enable-libopenh264 --enable-libdav1d --enable-gnutls --enable-libmp3lame --enable-libvpx --enable-libass --enable-pthreads --enable-vaapi --enable-gpl --enable-libx264 --enable-libx265 --enable-libaom --enable-libsvtav1 --enable-libxml2 --enable-pic --enable-shared --disable-static --enable-version3 --enable-zlib --enable-libopus --pkg-config=/home/conda/feedstock_root/build_artifacts/ffmpeg_1703992514465/_build_env/bin/pkg-config\n",
      "  libavutil      58. 29.100 / 58. 29.100\n",
      "  libavcodec     60. 31.102 / 60. 31.102\n",
      "  libavformat    60. 16.100 / 60. 16.100\n",
      "  libavdevice    60.  3.100 / 60.  3.100\n",
      "  libavfilter     9. 12.100 /  9. 12.100\n",
      "  libswscale      7.  5.100 /  7.  5.100\n",
      "  libswresample   4. 12.100 /  4. 12.100\n",
      "  libpostproc    57.  3.100 / 57.  3.100\n"
     ]
    },
    {
     "name": "stdout",
     "output_type": "stream",
     "text": [
      "Generating video for Jun\n"
     ]
    },
    {
     "name": "stderr",
     "output_type": "stream",
     "text": [
      "Input #0, concat, from 'frames_Jun/frame_list.txt':\n",
      "  Duration: N/A, start: 0.000000, bitrate: N/A\n",
      "  Stream #0:0: Video: png, rgba(pc, gbr/unknown/unknown), 924x788 [SAR 3937:3937 DAR 231:197], 25 fps, 25 tbr, 25 tbn\n",
      "Stream mapping:\n",
      "  Stream #0:0 -> #0:0 (png (native) -> h264 (libx264))\n",
      "Press [q] to stop, [?] for help\n",
      "[libx264 @ 0x55cc7c8ebfc0] using SAR=2970/3077\n",
      "[libx264 @ 0x55cc7c8ebfc0] using cpu capabilities: MMX2 SSE2Fast SSSE3 SSE4.2 AVX FMA3 BMI2 AVX2 AVX512\n",
      "[libx264 @ 0x55cc7c8ebfc0] profile High, level 3.1, 4:2:0, 8-bit\n",
      "[libx264 @ 0x55cc7c8ebfc0] 264 - core 164 r3095 baee400 - H.264/MPEG-4 AVC codec - Copyleft 2003-2022 - http://www.videolan.org/x264.html - options: cabac=1 ref=3 deblock=1:0:0 analyse=0x3:0x113 me=hex subme=7 psy=1 psy_rd=1.00:0.00 mixed_ref=1 me_range=16 chroma_me=1 trellis=1 8x8dct=1 cqm=0 deadzone=21,11 fast_pskip=1 chroma_qp_offset=-2 threads=24 lookahead_threads=4 sliced_threads=0 nr=0 decimate=1 interlaced=0 bluray_compat=0 constrained_intra=0 bframes=3 b_pyramid=2 b_adapt=1 b_bias=0 direct=1 weightb=1 open_gop=0 weightp=2 keyint=250 keyint_min=25 scenecut=40 intra_refresh=0 rc_lookahead=40 rc=abr mbtree=1 bitrate=750 ratetol=1.0 qcomp=0.60 qpmin=0 qpmax=69 qpstep=4 ip_ratio=1.40 aq=1:1.00\n",
      "Output #0, mp4, to 'month_Jun.mp4':\n",
      "  Metadata:\n",
      "    encoder         : Lavf60.16.100\n",
      "  Stream #0:0: Video: h264 (avc1 / 0x31637661), yuv420p(tv, progressive), 950x782 [SAR 90321:93575 DAR 231:197], q=2-31, 750 kb/s, 25 fps, 12800 tbn\n",
      "    Metadata:\n",
      "      encoder         : Lavc60.31.102 libx264\n",
      "    Side data:\n",
      "      cpb: bitrate max/min/avg: 0/0/750000 buffer size: 0 vbv_delay: N/A\n",
      "[out#0/mp4 @ 0x55cc7c8e9e80] video:1708kB audio:0kB subtitle:0kB other streams:0kB global headers:0kB muxing overhead: 0.255471%\n",
      "frame=  256 fps= 28 q=-1.0 Lsize=    1713kB time=00:00:18.96 bitrate= 740.0kbits/s speed=2.04x    \n",
      "[libx264 @ 0x55cc7c8ebfc0] frame I:2     Avg QP:24.42  size: 39475\n",
      "[libx264 @ 0x55cc7c8ebfc0] frame P:65    Avg QP:25.63  size:  4130\n",
      "[libx264 @ 0x55cc7c8ebfc0] frame B:189   Avg QP:31.16  size:  7414\n",
      "[libx264 @ 0x55cc7c8ebfc0] consecutive B-frames:  1.6%  0.0%  0.0% 98.4%\n",
      "[libx264 @ 0x55cc7c8ebfc0] mb I  I16..4: 11.2% 59.9% 28.9%\n",
      "[libx264 @ 0x55cc7c8ebfc0] mb P  I16..4:  0.6%  1.7%  1.2%  P16..4: 26.2%  0.7%  0.7%  0.0%  0.0%    skip:68.9%\n",
      "[libx264 @ 0x55cc7c8ebfc0] mb B  I16..4:  1.3%  1.3%  1.2%  B16..8:  8.9%  2.0%  1.3%  direct: 5.1%  skip:78.9%  L0:49.7% L1:44.9% BI: 5.5%\n",
      "[libx264 @ 0x55cc7c8ebfc0] final ratefactor: 25.36\n",
      "[libx264 @ 0x55cc7c8ebfc0] 8x8 transform intra:41.4% inter:77.9%\n",
      "[libx264 @ 0x55cc7c8ebfc0] coded y,uvDC,uvAC intra: 45.8% 70.7% 54.9% inter: 6.6% 8.9% 4.8%\n",
      "[libx264 @ 0x55cc7c8ebfc0] i16 v,h,dc,p: 11% 10%  3% 76%\n",
      "[libx264 @ 0x55cc7c8ebfc0] i8 v,h,dc,ddl,ddr,vr,hd,vl,hu: 25% 10% 32%  4%  8%  7%  6%  5%  3%\n",
      "[libx264 @ 0x55cc7c8ebfc0] i4 v,h,dc,ddl,ddr,vr,hd,vl,hu: 22% 15% 18%  7%  9%  9%  7%  7%  5%\n",
      "[libx264 @ 0x55cc7c8ebfc0] i8c dc,h,v,p: 42% 13% 15% 30%\n",
      "[libx264 @ 0x55cc7c8ebfc0] Weighted P-Frames: Y:0.0% UV:0.0%\n",
      "[libx264 @ 0x55cc7c8ebfc0] ref P L0:  7.2%  0.9% 14.9% 77.0%\n",
      "[libx264 @ 0x55cc7c8ebfc0] ref B L0: 81.3% 15.5%  3.2%\n",
      "[libx264 @ 0x55cc7c8ebfc0] ref B L1: 94.5%  5.5%\n",
      "[libx264 @ 0x55cc7c8ebfc0] kb/s:728.59\n",
      "ffmpeg version 6.1.1 Copyright (c) 2000-2023 the FFmpeg developers\n",
      "  built with gcc 12.3.0 (conda-forge gcc 12.3.0-3)\n",
      "  configuration: --prefix=/home/conda/feedstock_root/build_artifacts/ffmpeg_1703992514465/_h_env_placehold_placehold_placehold_placehold_placehold_placehold_placehold_placehold_placehold_placehold_placehold_placehold_placehold_placehold_placehold_placehold_placehold_placehold_plac --cc=/home/conda/feedstock_root/build_artifacts/ffmpeg_1703992514465/_build_env/bin/x86_64-conda-linux-gnu-cc --cxx=/home/conda/feedstock_root/build_artifacts/ffmpeg_1703992514465/_build_env/bin/x86_64-conda-linux-gnu-c++ --nm=/home/conda/feedstock_root/build_artifacts/ffmpeg_1703992514465/_build_env/bin/x86_64-conda-linux-gnu-nm --ar=/home/conda/feedstock_root/build_artifacts/ffmpeg_1703992514465/_build_env/bin/x86_64-conda-linux-gnu-ar --disable-doc --disable-openssl --enable-demuxer=dash --enable-hardcoded-tables --enable-libfreetype --enable-libharfbuzz --enable-libfontconfig --enable-libopenh264 --enable-libdav1d --enable-gnutls --enable-libmp3lame --enable-libvpx --enable-libass --enable-pthreads --enable-vaapi --enable-gpl --enable-libx264 --enable-libx265 --enable-libaom --enable-libsvtav1 --enable-libxml2 --enable-pic --enable-shared --disable-static --enable-version3 --enable-zlib --enable-libopus --pkg-config=/home/conda/feedstock_root/build_artifacts/ffmpeg_1703992514465/_build_env/bin/pkg-config\n",
      "  libavutil      58. 29.100 / 58. 29.100\n",
      "  libavcodec     60. 31.102 / 60. 31.102\n",
      "  libavformat    60. 16.100 / 60. 16.100\n",
      "  libavdevice    60.  3.100 / 60.  3.100\n",
      "  libavfilter     9. 12.100 /  9. 12.100\n",
      "  libswscale      7.  5.100 /  7.  5.100\n",
      "  libswresample   4. 12.100 /  4. 12.100\n",
      "  libpostproc    57.  3.100 / 57.  3.100\n",
      "Input #0, concat, from 'frames_Jul/frame_list.txt':\n",
      "  Duration: N/A, start: 0.000000, bitrate: N/A\n",
      "  Stream #0:0: Video: png, rgba(pc, gbr/unknown/unknown), 924x788 [SAR 3937:3937 DAR 231:197], 25 fps, 25 tbr, 25 tbn\n",
      "Stream mapping:\n",
      "  Stream #0:0 -> #0:0 (png (native) -> h264 (libx264))\n",
      "Press [q] to stop, [?] for help\n"
     ]
    },
    {
     "name": "stdout",
     "output_type": "stream",
     "text": [
      "Generating video for Jul\n"
     ]
    },
    {
     "name": "stderr",
     "output_type": "stream",
     "text": [
      "[libx264 @ 0x55cf7eb4a9c0] using SAR=2970/3077\n",
      "[libx264 @ 0x55cf7eb4a9c0] using cpu capabilities: MMX2 SSE2Fast SSSE3 SSE4.2 AVX FMA3 BMI2 AVX2 AVX512\n",
      "[libx264 @ 0x55cf7eb4a9c0] profile High, level 3.1, 4:2:0, 8-bit\n",
      "[libx264 @ 0x55cf7eb4a9c0] 264 - core 164 r3095 baee400 - H.264/MPEG-4 AVC codec - Copyleft 2003-2022 - http://www.videolan.org/x264.html - options: cabac=1 ref=3 deblock=1:0:0 analyse=0x3:0x113 me=hex subme=7 psy=1 psy_rd=1.00:0.00 mixed_ref=1 me_range=16 chroma_me=1 trellis=1 8x8dct=1 cqm=0 deadzone=21,11 fast_pskip=1 chroma_qp_offset=-2 threads=24 lookahead_threads=4 sliced_threads=0 nr=0 decimate=1 interlaced=0 bluray_compat=0 constrained_intra=0 bframes=3 b_pyramid=2 b_adapt=1 b_bias=0 direct=1 weightb=1 open_gop=0 weightp=2 keyint=250 keyint_min=25 scenecut=40 intra_refresh=0 rc_lookahead=40 rc=abr mbtree=1 bitrate=750 ratetol=1.0 qcomp=0.60 qpmin=0 qpmax=69 qpstep=4 ip_ratio=1.40 aq=1:1.00\n",
      "Output #0, mp4, to 'month_Jul.mp4':\n",
      "  Metadata:\n",
      "    encoder         : Lavf60.16.100\n",
      "  Stream #0:0: Video: h264 (avc1 / 0x31637661), yuv420p(tv, progressive), 950x782 [SAR 90321:93575 DAR 231:197], q=2-31, 750 kb/s, 25 fps, 12800 tbn\n",
      "    Metadata:\n",
      "      encoder         : Lavc60.31.102 libx264\n",
      "    Side data:\n",
      "      cpb: bitrate max/min/avg: 0/0/750000 buffer size: 0 vbv_delay: N/A\n",
      "[out#0/mp4 @ 0x55cf7eb48880] video:1608kB audio:0kB subtitle:0kB other streams:0kB global headers:0kB muxing overhead: 0.264844%\n",
      "frame=  248 fps= 31 q=-1.0 Lsize=    1612kB time=00:00:18.36 bitrate= 719.4kbits/s speed=2.29x    \n",
      "[libx264 @ 0x55cf7eb4a9c0] frame I:1     Avg QP:26.42  size: 28665\n",
      "[libx264 @ 0x55cf7eb4a9c0] frame P:62    Avg QP:25.92  size:  1888\n",
      "[libx264 @ 0x55cf7eb4a9c0] frame B:185   Avg QP:31.85  size:  8109\n",
      "[libx264 @ 0x55cf7eb4a9c0] consecutive B-frames:  0.4%  0.0%  1.2% 98.4%\n",
      "[libx264 @ 0x55cf7eb4a9c0] mb I  I16..4: 11.8% 63.6% 24.6%\n",
      "[libx264 @ 0x55cf7eb4a9c0] mb P  I16..4:  0.3%  1.4%  0.2%  P16..4: 29.5%  0.4%  0.6%  0.0%  0.0%    skip:67.6%\n",
      "[libx264 @ 0x55cf7eb4a9c0] mb B  I16..4:  1.4%  1.3%  1.4%  B16..8:  9.2%  2.3%  1.4%  direct: 5.5%  skip:77.4%  L0:50.4% L1:44.0% BI: 5.6%\n",
      "[libx264 @ 0x55cf7eb4a9c0] final ratefactor: 25.27\n",
      "[libx264 @ 0x55cf7eb4a9c0] 8x8 transform intra:39.8% inter:78.2%\n",
      "[libx264 @ 0x55cf7eb4a9c0] coded y,uvDC,uvAC intra: 45.8% 75.6% 57.3% inter: 7.1% 9.8% 4.9%\n",
      "[libx264 @ 0x55cf7eb4a9c0] i16 v,h,dc,p: 10%  8%  3% 80%\n",
      "[libx264 @ 0x55cf7eb4a9c0] i8 v,h,dc,ddl,ddr,vr,hd,vl,hu: 22%  7% 36%  4%  9%  8%  6%  5%  3%\n",
      "[libx264 @ 0x55cf7eb4a9c0] i4 v,h,dc,ddl,ddr,vr,hd,vl,hu: 23% 14% 18%  8%  9%  9%  7%  8%  5%\n",
      "[libx264 @ 0x55cf7eb4a9c0] i8c dc,h,v,p: 38% 11% 16% 34%\n",
      "[libx264 @ 0x55cf7eb4a9c0] Weighted P-Frames: Y:0.0% UV:0.0%\n",
      "[libx264 @ 0x55cf7eb4a9c0] ref P L0:  3.4%  0.2% 15.3% 81.1%\n",
      "[libx264 @ 0x55cf7eb4a9c0] ref B L0: 80.6% 15.8%  3.6%\n",
      "[libx264 @ 0x55cf7eb4a9c0] ref B L1: 94.2%  5.8%\n",
      "[libx264 @ 0x55cf7eb4a9c0] kb/s:707.93\n"
     ]
    },
    {
     "name": "stdout",
     "output_type": "stream",
     "text": [
      "Generating video for Aug\n"
     ]
    },
    {
     "name": "stderr",
     "output_type": "stream",
     "text": [
      "ffmpeg version 6.1.1 Copyright (c) 2000-2023 the FFmpeg developers\n",
      "  built with gcc 12.3.0 (conda-forge gcc 12.3.0-3)\n",
      "  configuration: --prefix=/home/conda/feedstock_root/build_artifacts/ffmpeg_1703992514465/_h_env_placehold_placehold_placehold_placehold_placehold_placehold_placehold_placehold_placehold_placehold_placehold_placehold_placehold_placehold_placehold_placehold_placehold_placehold_plac --cc=/home/conda/feedstock_root/build_artifacts/ffmpeg_1703992514465/_build_env/bin/x86_64-conda-linux-gnu-cc --cxx=/home/conda/feedstock_root/build_artifacts/ffmpeg_1703992514465/_build_env/bin/x86_64-conda-linux-gnu-c++ --nm=/home/conda/feedstock_root/build_artifacts/ffmpeg_1703992514465/_build_env/bin/x86_64-conda-linux-gnu-nm --ar=/home/conda/feedstock_root/build_artifacts/ffmpeg_1703992514465/_build_env/bin/x86_64-conda-linux-gnu-ar --disable-doc --disable-openssl --enable-demuxer=dash --enable-hardcoded-tables --enable-libfreetype --enable-libharfbuzz --enable-libfontconfig --enable-libopenh264 --enable-libdav1d --enable-gnutls --enable-libmp3lame --enable-libvpx --enable-libass --enable-pthreads --enable-vaapi --enable-gpl --enable-libx264 --enable-libx265 --enable-libaom --enable-libsvtav1 --enable-libxml2 --enable-pic --enable-shared --disable-static --enable-version3 --enable-zlib --enable-libopus --pkg-config=/home/conda/feedstock_root/build_artifacts/ffmpeg_1703992514465/_build_env/bin/pkg-config\n",
      "  libavutil      58. 29.100 / 58. 29.100\n",
      "  libavcodec     60. 31.102 / 60. 31.102\n",
      "  libavformat    60. 16.100 / 60. 16.100\n",
      "  libavdevice    60.  3.100 / 60.  3.100\n",
      "  libavfilter     9. 12.100 /  9. 12.100\n",
      "  libswscale      7.  5.100 /  7.  5.100\n",
      "  libswresample   4. 12.100 /  4. 12.100\n",
      "  libpostproc    57.  3.100 / 57.  3.100\n",
      "Input #0, concat, from 'frames_Aug/frame_list.txt':\n",
      "  Duration: N/A, start: 0.000000, bitrate: N/A\n",
      "  Stream #0:0: Video: png, rgba(pc, gbr/unknown/unknown), 924x788 [SAR 3937:3937 DAR 231:197], 25 fps, 25 tbr, 25 tbn\n",
      "Stream mapping:\n",
      "  Stream #0:0 -> #0:0 (png (native) -> h264 (libx264))\n",
      "Press [q] to stop, [?] for help\n",
      "[libx264 @ 0x55dd17d539c0] using SAR=2970/3077\n",
      "[libx264 @ 0x55dd17d539c0] using cpu capabilities: MMX2 SSE2Fast SSSE3 SSE4.2 AVX FMA3 BMI2 AVX2 AVX512\n",
      "[libx264 @ 0x55dd17d539c0] profile High, level 3.1, 4:2:0, 8-bit\n",
      "[libx264 @ 0x55dd17d539c0] 264 - core 164 r3095 baee400 - H.264/MPEG-4 AVC codec - Copyleft 2003-2022 - http://www.videolan.org/x264.html - options: cabac=1 ref=3 deblock=1:0:0 analyse=0x3:0x113 me=hex subme=7 psy=1 psy_rd=1.00:0.00 mixed_ref=1 me_range=16 chroma_me=1 trellis=1 8x8dct=1 cqm=0 deadzone=21,11 fast_pskip=1 chroma_qp_offset=-2 threads=24 lookahead_threads=4 sliced_threads=0 nr=0 decimate=1 interlaced=0 bluray_compat=0 constrained_intra=0 bframes=3 b_pyramid=2 b_adapt=1 b_bias=0 direct=1 weightb=1 open_gop=0 weightp=2 keyint=250 keyint_min=25 scenecut=40 intra_refresh=0 rc_lookahead=40 rc=abr mbtree=1 bitrate=750 ratetol=1.0 qcomp=0.60 qpmin=0 qpmax=69 qpstep=4 ip_ratio=1.40 aq=1:1.00\n",
      "Output #0, mp4, to 'month_Aug.mp4':\n",
      "  Metadata:\n",
      "    encoder         : Lavf60.16.100\n",
      "  Stream #0:0: Video: h264 (avc1 / 0x31637661), yuv420p(tv, progressive), 950x782 [SAR 90321:93575 DAR 231:197], q=2-31, 750 kb/s, 25 fps, 12800 tbn\n",
      "    Metadata:\n",
      "      encoder         : Lavc60.31.102 libx264\n",
      "    Side data:\n",
      "      cpb: bitrate max/min/avg: 0/0/750000 buffer size: 0 vbv_delay: N/A\n",
      "[out#0/mp4 @ 0x55dd17d51880] video:1609kB audio:0kB subtitle:0kB other streams:0kB global headers:0kB muxing overhead: 0.264616%\n",
      "frame=  248 fps= 37 q=-1.0 Lsize=    1614kB time=00:00:18.36 bitrate= 720.0kbits/s speed=2.77x    \n",
      "[libx264 @ 0x55dd17d539c0] frame I:1     Avg QP:26.62  size: 27783\n",
      "[libx264 @ 0x55dd17d539c0] frame P:62    Avg QP:26.31  size:  2229\n",
      "[libx264 @ 0x55dd17d539c0] frame B:185   Avg QP:31.88  size:  8007\n",
      "[libx264 @ 0x55dd17d539c0] consecutive B-frames:  0.4%  0.0%  1.2% 98.4%\n",
      "[libx264 @ 0x55dd17d539c0] mb I  I16..4: 12.0% 63.5% 24.5%\n",
      "[libx264 @ 0x55dd17d539c0] mb P  I16..4:  0.3%  1.7%  0.2%  P16..4: 30.6%  0.6%  0.8%  0.0%  0.0%    skip:65.9%\n",
      "[libx264 @ 0x55dd17d539c0] mb B  I16..4:  1.6%  1.4%  1.4%  B16..8:  9.4%  2.4%  1.3%  direct: 5.3%  skip:77.1%  L0:50.1% L1:44.5% BI: 5.3%\n",
      "[libx264 @ 0x55dd17d539c0] final ratefactor: 25.30\n",
      "[libx264 @ 0x55dd17d539c0] 8x8 transform intra:40.8% inter:79.5%\n",
      "[libx264 @ 0x55dd17d539c0] coded y,uvDC,uvAC intra: 44.4% 75.3% 56.4% inter: 7.3% 10.2% 4.7%\n",
      "[libx264 @ 0x55dd17d539c0] i16 v,h,dc,p: 10%  7%  3% 80%\n",
      "[libx264 @ 0x55dd17d539c0] i8 v,h,dc,ddl,ddr,vr,hd,vl,hu: 20%  9% 38%  4%  8%  7%  7%  5%  3%\n",
      "[libx264 @ 0x55dd17d539c0] i4 v,h,dc,ddl,ddr,vr,hd,vl,hu: 23% 13% 19%  8%  8% 10%  7%  8%  5%\n",
      "[libx264 @ 0x55dd17d539c0] i8c dc,h,v,p: 36% 11% 19% 34%\n",
      "[libx264 @ 0x55dd17d539c0] Weighted P-Frames: Y:0.0% UV:0.0%\n",
      "[libx264 @ 0x55dd17d539c0] ref P L0:  3.5%  0.2% 17.5% 78.8%\n",
      "[libx264 @ 0x55dd17d539c0] ref B L0: 80.3% 16.4%  3.3%\n",
      "[libx264 @ 0x55dd17d539c0] ref B L1: 94.3%  5.7%\n",
      "[libx264 @ 0x55dd17d539c0] kb/s:708.53\n",
      "ffmpeg version 6.1.1 Copyright (c) 2000-2023 the FFmpeg developers\n",
      "  built with gcc 12.3.0 (conda-forge gcc 12.3.0-3)\n",
      "  configuration: --prefix=/home/conda/feedstock_root/build_artifacts/ffmpeg_1703992514465/_h_env_placehold_placehold_placehold_placehold_placehold_placehold_placehold_placehold_placehold_placehold_placehold_placehold_placehold_placehold_placehold_placehold_placehold_placehold_plac --cc=/home/conda/feedstock_root/build_artifacts/ffmpeg_1703992514465/_build_env/bin/x86_64-conda-linux-gnu-cc --cxx=/home/conda/feedstock_root/build_artifacts/ffmpeg_1703992514465/_build_env/bin/x86_64-conda-linux-gnu-c++ --nm=/home/conda/feedstock_root/build_artifacts/ffmpeg_1703992514465/_build_env/bin/x86_64-conda-linux-gnu-nm --ar=/home/conda/feedstock_root/build_artifacts/ffmpeg_1703992514465/_build_env/bin/x86_64-conda-linux-gnu-ar --disable-doc --disable-openssl --enable-demuxer=dash --enable-hardcoded-tables --enable-libfreetype --enable-libharfbuzz --enable-libfontconfig --enable-libopenh264 --enable-libdav1d --enable-gnutls --enable-libmp3lame --enable-libvpx --enable-libass --enable-pthreads --enable-vaapi --enable-gpl --enable-libx264 --enable-libx265 --enable-libaom --enable-libsvtav1 --enable-libxml2 --enable-pic --enable-shared --disable-static --enable-version3 --enable-zlib --enable-libopus --pkg-config=/home/conda/feedstock_root/build_artifacts/ffmpeg_1703992514465/_build_env/bin/pkg-config\n",
      "  libavutil      58. 29.100 / 58. 29.100\n",
      "  libavcodec     60. 31.102 / 60. 31.102\n",
      "  libavformat    60. 16.100 / 60. 16.100\n",
      "  libavdevice    60.  3.100 / 60.  3.100\n",
      "  libavfilter     9. 12.100 /  9. 12.100\n",
      "  libswscale      7.  5.100 /  7.  5.100\n",
      "  libswresample   4. 12.100 /  4. 12.100\n",
      "  libpostproc    57.  3.100 / 57.  3.100\n",
      "Input #0, concat, from 'frames_Sep/frame_list.txt':\n",
      "  Duration: N/A, start: 0.000000, bitrate: N/A\n",
      "  Stream #0:0: Video: png, rgba(pc, gbr/unknown/unknown), 924x788 [SAR 3937:3937 DAR 231:197], 25 fps, 25 tbr, 25 tbn\n",
      "Stream mapping:\n",
      "  Stream #0:0 -> #0:0 (png (native) -> h264 (libx264))\n",
      "Press [q] to stop, [?] for help\n"
     ]
    },
    {
     "name": "stdout",
     "output_type": "stream",
     "text": [
      "Generating video for Sep\n"
     ]
    },
    {
     "name": "stderr",
     "output_type": "stream",
     "text": [
      "[libx264 @ 0x55c42b2b4fc0] using SAR=2970/3077\n",
      "[libx264 @ 0x55c42b2b4fc0] using cpu capabilities: MMX2 SSE2Fast SSSE3 SSE4.2 AVX FMA3 BMI2 AVX2 AVX512\n",
      "[libx264 @ 0x55c42b2b4fc0] profile High, level 3.1, 4:2:0, 8-bit\n",
      "[libx264 @ 0x55c42b2b4fc0] 264 - core 164 r3095 baee400 - H.264/MPEG-4 AVC codec - Copyleft 2003-2022 - http://www.videolan.org/x264.html - options: cabac=1 ref=3 deblock=1:0:0 analyse=0x3:0x113 me=hex subme=7 psy=1 psy_rd=1.00:0.00 mixed_ref=1 me_range=16 chroma_me=1 trellis=1 8x8dct=1 cqm=0 deadzone=21,11 fast_pskip=1 chroma_qp_offset=-2 threads=24 lookahead_threads=4 sliced_threads=0 nr=0 decimate=1 interlaced=0 bluray_compat=0 constrained_intra=0 bframes=3 b_pyramid=2 b_adapt=1 b_bias=0 direct=1 weightb=1 open_gop=0 weightp=2 keyint=250 keyint_min=25 scenecut=40 intra_refresh=0 rc_lookahead=40 rc=abr mbtree=1 bitrate=750 ratetol=1.0 qcomp=0.60 qpmin=0 qpmax=69 qpstep=4 ip_ratio=1.40 aq=1:1.00\n",
      "Output #0, mp4, to 'month_Sep.mp4':\n",
      "  Metadata:\n",
      "    encoder         : Lavf60.16.100\n",
      "  Stream #0:0: Video: h264 (avc1 / 0x31637661), yuv420p(tv, progressive), 950x782 [SAR 90321:93575 DAR 231:197], q=2-31, 750 kb/s, 25 fps, 12800 tbn\n",
      "    Metadata:\n",
      "      encoder         : Lavc60.31.102 libx264\n",
      "    Side data:\n",
      "      cpb: bitrate max/min/avg: 0/0/750000 buffer size: 0 vbv_delay: N/A\n",
      "[out#0/mp4 @ 0x55c42b2b2e80] video:1701kB audio:0kB subtitle:0kB other streams:0kB global headers:0kB muxing overhead: 0.256594%\n",
      "frame=  256 fps= 29 q=-1.0 Lsize=    1705kB time=00:00:18.96 bitrate= 736.8kbits/s speed=2.11x    \n",
      "[libx264 @ 0x55c42b2b4fc0] frame I:2     Avg QP:24.00  size: 35943\n",
      "[libx264 @ 0x55c42b2b4fc0] frame P:65    Avg QP:26.19  size:  4610\n",
      "[libx264 @ 0x55c42b2b4fc0] frame B:189   Avg QP:30.78  size:  7245\n",
      "[libx264 @ 0x55c42b2b4fc0] consecutive B-frames:  1.6%  0.0%  0.0% 98.4%\n",
      "[libx264 @ 0x55c42b2b4fc0] mb I  I16..4: 15.9% 56.1% 28.0%\n",
      "[libx264 @ 0x55c42b2b4fc0] mb P  I16..4:  0.8%  1.9%  1.3%  P16..4: 29.1%  1.0%  1.1%  0.0%  0.0%    skip:64.9%\n",
      "[libx264 @ 0x55c42b2b4fc0] mb B  I16..4:  1.6%  1.5%  1.4%  B16..8:  9.1%  2.0%  1.1%  direct: 4.6%  skip:78.7%  L0:49.4% L1:45.0% BI: 5.6%\n",
      "[libx264 @ 0x55c42b2b4fc0] final ratefactor: 25.28\n",
      "[libx264 @ 0x55c42b2b4fc0] 8x8 transform intra:39.7% inter:79.2%\n",
      "[libx264 @ 0x55c42b2b4fc0] coded y,uvDC,uvAC intra: 44.7% 72.4% 54.1% inter: 6.8% 9.4% 4.3%\n",
      "[libx264 @ 0x55c42b2b4fc0] i16 v,h,dc,p: 14% 10%  4% 73%\n",
      "[libx264 @ 0x55c42b2b4fc0] i8 v,h,dc,ddl,ddr,vr,hd,vl,hu: 23% 10% 34%  4%  7%  7%  6%  6%  3%\n",
      "[libx264 @ 0x55c42b2b4fc0] i4 v,h,dc,ddl,ddr,vr,hd,vl,hu: 23% 14% 18%  7%  8%  9%  7%  8%  5%\n",
      "[libx264 @ 0x55c42b2b4fc0] i8c dc,h,v,p: 38% 11% 18% 33%\n",
      "[libx264 @ 0x55c42b2b4fc0] Weighted P-Frames: Y:0.0% UV:0.0%\n",
      "[libx264 @ 0x55c42b2b4fc0] ref P L0:  6.1%  0.7% 20.4% 72.8%\n",
      "[libx264 @ 0x55c42b2b4fc0] ref B L0: 82.5% 13.9%  3.6%\n",
      "[libx264 @ 0x55c42b2b4fc0] ref B L1: 93.6%  6.4%\n",
      "[libx264 @ 0x55c42b2b4fc0] kb/s:725.40\n"
     ]
    },
    {
     "name": "stdout",
     "output_type": "stream",
     "text": [
      "Generating video for Oct\n"
     ]
    },
    {
     "name": "stderr",
     "output_type": "stream",
     "text": [
      "ffmpeg version 6.1.1 Copyright (c) 2000-2023 the FFmpeg developers\n",
      "  built with gcc 12.3.0 (conda-forge gcc 12.3.0-3)\n",
      "  configuration: --prefix=/home/conda/feedstock_root/build_artifacts/ffmpeg_1703992514465/_h_env_placehold_placehold_placehold_placehold_placehold_placehold_placehold_placehold_placehold_placehold_placehold_placehold_placehold_placehold_placehold_placehold_placehold_placehold_plac --cc=/home/conda/feedstock_root/build_artifacts/ffmpeg_1703992514465/_build_env/bin/x86_64-conda-linux-gnu-cc --cxx=/home/conda/feedstock_root/build_artifacts/ffmpeg_1703992514465/_build_env/bin/x86_64-conda-linux-gnu-c++ --nm=/home/conda/feedstock_root/build_artifacts/ffmpeg_1703992514465/_build_env/bin/x86_64-conda-linux-gnu-nm --ar=/home/conda/feedstock_root/build_artifacts/ffmpeg_1703992514465/_build_env/bin/x86_64-conda-linux-gnu-ar --disable-doc --disable-openssl --enable-demuxer=dash --enable-hardcoded-tables --enable-libfreetype --enable-libharfbuzz --enable-libfontconfig --enable-libopenh264 --enable-libdav1d --enable-gnutls --enable-libmp3lame --enable-libvpx --enable-libass --enable-pthreads --enable-vaapi --enable-gpl --enable-libx264 --enable-libx265 --enable-libaom --enable-libsvtav1 --enable-libxml2 --enable-pic --enable-shared --disable-static --enable-version3 --enable-zlib --enable-libopus --pkg-config=/home/conda/feedstock_root/build_artifacts/ffmpeg_1703992514465/_build_env/bin/pkg-config\n",
      "  libavutil      58. 29.100 / 58. 29.100\n",
      "  libavcodec     60. 31.102 / 60. 31.102\n",
      "  libavformat    60. 16.100 / 60. 16.100\n",
      "  libavdevice    60.  3.100 / 60.  3.100\n",
      "  libavfilter     9. 12.100 /  9. 12.100\n",
      "  libswscale      7.  5.100 /  7.  5.100\n",
      "  libswresample   4. 12.100 /  4. 12.100\n",
      "  libpostproc    57.  3.100 / 57.  3.100\n",
      "Input #0, concat, from 'frames_Oct/frame_list.txt':\n",
      "  Duration: N/A, start: 0.000000, bitrate: N/A\n",
      "  Stream #0:0: Video: png, rgba(pc, gbr/unknown/unknown), 924x788 [SAR 3937:3937 DAR 231:197], 25 fps, 25 tbr, 25 tbn\n",
      "Stream mapping:\n",
      "  Stream #0:0 -> #0:0 (png (native) -> h264 (libx264))\n",
      "Press [q] to stop, [?] for help\n",
      "[libx264 @ 0x55c329ddd9c0] using SAR=2970/3077\n",
      "[libx264 @ 0x55c329ddd9c0] using cpu capabilities: MMX2 SSE2Fast SSSE3 SSE4.2 AVX FMA3 BMI2 AVX2 AVX512\n",
      "[libx264 @ 0x55c329ddd9c0] profile High, level 3.1, 4:2:0, 8-bit\n",
      "[libx264 @ 0x55c329ddd9c0] 264 - core 164 r3095 baee400 - H.264/MPEG-4 AVC codec - Copyleft 2003-2022 - http://www.videolan.org/x264.html - options: cabac=1 ref=3 deblock=1:0:0 analyse=0x3:0x113 me=hex subme=7 psy=1 psy_rd=1.00:0.00 mixed_ref=1 me_range=16 chroma_me=1 trellis=1 8x8dct=1 cqm=0 deadzone=21,11 fast_pskip=1 chroma_qp_offset=-2 threads=24 lookahead_threads=4 sliced_threads=0 nr=0 decimate=1 interlaced=0 bluray_compat=0 constrained_intra=0 bframes=3 b_pyramid=2 b_adapt=1 b_bias=0 direct=1 weightb=1 open_gop=0 weightp=2 keyint=250 keyint_min=25 scenecut=40 intra_refresh=0 rc_lookahead=40 rc=abr mbtree=1 bitrate=750 ratetol=1.0 qcomp=0.60 qpmin=0 qpmax=69 qpstep=4 ip_ratio=1.40 aq=1:1.00\n",
      "Output #0, mp4, to 'month_Oct.mp4':\n",
      "  Metadata:\n",
      "    encoder         : Lavf60.16.100\n",
      "  Stream #0:0: Video: h264 (avc1 / 0x31637661), yuv420p(tv, progressive), 950x782 [SAR 90321:93575 DAR 231:197], q=2-31, 750 kb/s, 25 fps, 12800 tbn\n",
      "    Metadata:\n",
      "      encoder         : Lavc60.31.102 libx264\n",
      "    Side data:\n",
      "      cpb: bitrate max/min/avg: 0/0/750000 buffer size: 0 vbv_delay: N/A\n",
      "[out#0/mp4 @ 0x55c329ddb880] video:1604kB audio:0kB subtitle:0kB other streams:0kB global headers:0kB muxing overhead: 0.265500%\n",
      "frame=  248 fps= 32 q=-1.0 Lsize=    1608kB time=00:00:18.36 bitrate= 717.6kbits/s speed=2.39x    \n",
      "[libx264 @ 0x55c329ddd9c0] frame I:1     Avg QP:26.74  size: 24796\n",
      "[libx264 @ 0x55c329ddd9c0] frame P:62    Avg QP:25.95  size:  2358\n",
      "[libx264 @ 0x55c329ddd9c0] frame B:185   Avg QP:31.47  size:  7951\n",
      "[libx264 @ 0x55c329ddd9c0] consecutive B-frames:  0.4%  0.0%  1.2% 98.4%\n",
      "[libx264 @ 0x55c329ddd9c0] mb I  I16..4: 13.7% 62.9% 23.3%\n",
      "[libx264 @ 0x55c329ddd9c0] mb P  I16..4:  0.3%  1.3%  0.3%  P16..4: 31.8%  0.7%  0.8%  0.0%  0.0%    skip:64.7%\n",
      "[libx264 @ 0x55c329ddd9c0] mb B  I16..4:  1.8%  1.7%  1.6%  B16..8:  9.1%  2.5%  1.3%  direct: 5.0%  skip:77.0%  L0:49.9% L1:43.9% BI: 6.2%\n",
      "[libx264 @ 0x55c329ddd9c0] final ratefactor: 24.93\n",
      "[libx264 @ 0x55c329ddd9c0] 8x8 transform intra:39.3% inter:79.2%\n",
      "[libx264 @ 0x55c329ddd9c0] coded y,uvDC,uvAC intra: 44.6% 77.7% 57.4% inter: 7.1% 10.1% 4.3%\n",
      "[libx264 @ 0x55c329ddd9c0] i16 v,h,dc,p: 13%  9%  4% 74%\n",
      "[libx264 @ 0x55c329ddd9c0] i8 v,h,dc,ddl,ddr,vr,hd,vl,hu: 21%  9% 32%  4%  9%  7%  7%  7%  4%\n",
      "[libx264 @ 0x55c329ddd9c0] i4 v,h,dc,ddl,ddr,vr,hd,vl,hu: 25% 12% 18%  7%  9% 10%  7%  8%  5%\n",
      "[libx264 @ 0x55c329ddd9c0] i8c dc,h,v,p: 34% 12% 19% 35%\n",
      "[libx264 @ 0x55c329ddd9c0] Weighted P-Frames: Y:0.0% UV:0.0%\n",
      "[libx264 @ 0x55c329ddd9c0] ref P L0:  3.8%  0.1% 18.9% 77.1%\n",
      "[libx264 @ 0x55c329ddd9c0] ref B L0: 81.4% 15.1%  3.5%\n",
      "[libx264 @ 0x55c329ddd9c0] ref B L1: 93.6%  6.4%\n",
      "[libx264 @ 0x55c329ddd9c0] kb/s:706.17\n",
      "ffmpeg version 6.1.1 Copyright (c) 2000-2023 the FFmpeg developers\n",
      "  built with gcc 12.3.0 (conda-forge gcc 12.3.0-3)\n",
      "  configuration: --prefix=/home/conda/feedstock_root/build_artifacts/ffmpeg_1703992514465/_h_env_placehold_placehold_placehold_placehold_placehold_placehold_placehold_placehold_placehold_placehold_placehold_placehold_placehold_placehold_placehold_placehold_placehold_placehold_plac --cc=/home/conda/feedstock_root/build_artifacts/ffmpeg_1703992514465/_build_env/bin/x86_64-conda-linux-gnu-cc --cxx=/home/conda/feedstock_root/build_artifacts/ffmpeg_1703992514465/_build_env/bin/x86_64-conda-linux-gnu-c++ --nm=/home/conda/feedstock_root/build_artifacts/ffmpeg_1703992514465/_build_env/bin/x86_64-conda-linux-gnu-nm --ar=/home/conda/feedstock_root/build_artifacts/ffmpeg_1703992514465/_build_env/bin/x86_64-conda-linux-gnu-ar --disable-doc --disable-openssl --enable-demuxer=dash --enable-hardcoded-tables --enable-libfreetype --enable-libharfbuzz --enable-libfontconfig --enable-libopenh264 --enable-libdav1d --enable-gnutls --enable-libmp3lame --enable-libvpx --enable-libass --enable-pthreads --enable-vaapi --enable-gpl --enable-libx264 --enable-libx265 --enable-libaom --enable-libsvtav1 --enable-libxml2 --enable-pic --enable-shared --disable-static --enable-version3 --enable-zlib --enable-libopus --pkg-config=/home/conda/feedstock_root/build_artifacts/ffmpeg_1703992514465/_build_env/bin/pkg-config\n",
      "  libavutil      58. 29.100 / 58. 29.100\n",
      "  libavcodec     60. 31.102 / 60. 31.102\n",
      "  libavformat    60. 16.100 / 60. 16.100\n",
      "  libavdevice    60.  3.100 / 60.  3.100\n",
      "  libavfilter     9. 12.100 /  9. 12.100\n",
      "  libswscale      7.  5.100 /  7.  5.100\n",
      "  libswresample   4. 12.100 /  4. 12.100\n",
      "  libpostproc    57.  3.100 / 57.  3.100\n",
      "Input #0, concat, from 'frames_Nov/frame_list.txt':\n",
      "  Duration: N/A, start: 0.000000, bitrate: N/A\n",
      "  Stream #0:0: Video: png, rgba(pc, gbr/unknown/unknown), 924x788 [SAR 3937:3937 DAR 231:197], 25 fps, 25 tbr, 25 tbn\n",
      "Stream mapping:\n",
      "  Stream #0:0 -> #0:0 (png (native) -> h264 (libx264))\n",
      "Press [q] to stop, [?] for help\n"
     ]
    },
    {
     "name": "stdout",
     "output_type": "stream",
     "text": [
      "Generating video for Nov\n"
     ]
    },
    {
     "name": "stderr",
     "output_type": "stream",
     "text": [
      "[libx264 @ 0x55f5af21f3c0] using SAR=2970/3077\n",
      "[libx264 @ 0x55f5af21f3c0] using cpu capabilities: MMX2 SSE2Fast SSSE3 SSE4.2 AVX FMA3 BMI2 AVX2 AVX512\n",
      "[libx264 @ 0x55f5af21f3c0] profile High, level 3.1, 4:2:0, 8-bit\n",
      "[libx264 @ 0x55f5af21f3c0] 264 - core 164 r3095 baee400 - H.264/MPEG-4 AVC codec - Copyleft 2003-2022 - http://www.videolan.org/x264.html - options: cabac=1 ref=3 deblock=1:0:0 analyse=0x3:0x113 me=hex subme=7 psy=1 psy_rd=1.00:0.00 mixed_ref=1 me_range=16 chroma_me=1 trellis=1 8x8dct=1 cqm=0 deadzone=21,11 fast_pskip=1 chroma_qp_offset=-2 threads=24 lookahead_threads=4 sliced_threads=0 nr=0 decimate=1 interlaced=0 bluray_compat=0 constrained_intra=0 bframes=3 b_pyramid=2 b_adapt=1 b_bias=0 direct=1 weightb=1 open_gop=0 weightp=2 keyint=250 keyint_min=25 scenecut=40 intra_refresh=0 rc_lookahead=40 rc=abr mbtree=1 bitrate=750 ratetol=1.0 qcomp=0.60 qpmin=0 qpmax=69 qpstep=4 ip_ratio=1.40 aq=1:1.00\n",
      "Output #0, mp4, to 'month_Nov.mp4':\n",
      "  Metadata:\n",
      "    encoder         : Lavf60.16.100\n",
      "  Stream #0:0: Video: h264 (avc1 / 0x31637661), yuv420p(tv, progressive), 950x782 [SAR 90321:93575 DAR 231:197], q=2-31, 750 kb/s, 25 fps, 12800 tbn\n",
      "    Metadata:\n",
      "      encoder         : Lavc60.31.102 libx264\n",
      "    Side data:\n",
      "      cpb: bitrate max/min/avg: 0/0/750000 buffer size: 0 vbv_delay: N/A\n",
      "[out#0/mp4 @ 0x55f5af21d280] video:1544kB audio:0kB subtitle:0kB other streams:0kB global headers:0kB muxing overhead: 0.268720%\n",
      "frame=  240 fps= 34 q=-1.0 Lsize=    1548kB time=00:00:17.76 bitrate= 714.2kbits/s speed=2.52x    \n",
      "[libx264 @ 0x55f5af21f3c0] frame I:1     Avg QP:26.12  size: 25677\n",
      "[libx264 @ 0x55f5af21f3c0] frame P:60    Avg QP:25.96  size:  2086\n",
      "[libx264 @ 0x55f5af21f3c0] frame B:179   Avg QP:31.76  size:  7987\n",
      "[libx264 @ 0x55f5af21f3c0] consecutive B-frames:  0.4%  0.0%  1.2% 98.3%\n",
      "[libx264 @ 0x55f5af21f3c0] mb I  I16..4: 14.2% 62.6% 23.2%\n",
      "[libx264 @ 0x55f5af21f3c0] mb P  I16..4:  0.4%  1.3%  0.2%  P16..4: 30.2%  0.5%  0.6%  0.0%  0.0%    skip:66.8%\n",
      "[libx264 @ 0x55f5af21f3c0] mb B  I16..4:  1.6%  1.7%  1.5%  B16..8:  9.2%  2.6%  1.4%  direct: 5.1%  skip:77.0%  L0:49.2% L1:44.6% BI: 6.2%\n",
      "[libx264 @ 0x55f5af21f3c0] final ratefactor: 24.65\n",
      "[libx264 @ 0x55f5af21f3c0] 8x8 transform intra:40.7% inter:79.0%\n",
      "[libx264 @ 0x55f5af21f3c0] coded y,uvDC,uvAC intra: 44.2% 76.4% 57.0% inter: 7.0% 9.9% 4.5%\n",
      "[libx264 @ 0x55f5af21f3c0] i16 v,h,dc,p: 11% 11%  3% 74%\n",
      "[libx264 @ 0x55f5af21f3c0] i8 v,h,dc,ddl,ddr,vr,hd,vl,hu: 20% 10% 32%  4%  9%  7%  8%  6%  3%\n",
      "[libx264 @ 0x55f5af21f3c0] i4 v,h,dc,ddl,ddr,vr,hd,vl,hu: 25% 13% 17%  7%  8% 10%  7%  8%  5%\n",
      "[libx264 @ 0x55f5af21f3c0] i8c dc,h,v,p: 34% 13% 18% 34%\n",
      "[libx264 @ 0x55f5af21f3c0] Weighted P-Frames: Y:0.0% UV:0.0%\n",
      "[libx264 @ 0x55f5af21f3c0] ref P L0:  4.1%  0.1% 16.4% 79.3%\n",
      "[libx264 @ 0x55f5af21f3c0] ref B L0: 82.1% 14.4%  3.5%\n",
      "[libx264 @ 0x55f5af21f3c0] ref B L1: 94.0%  6.0%\n",
      "[libx264 @ 0x55f5af21f3c0] kb/s:702.44\n",
      "ffmpeg version 6.1.1 Copyright (c) 2000-2023 the FFmpeg developers\n",
      "  built with gcc 12.3.0 (conda-forge gcc 12.3.0-3)\n",
      "  configuration: --prefix=/home/conda/feedstock_root/build_artifacts/ffmpeg_1703992514465/_h_env_placehold_placehold_placehold_placehold_placehold_placehold_placehold_placehold_placehold_placehold_placehold_placehold_placehold_placehold_placehold_placehold_placehold_placehold_plac --cc=/home/conda/feedstock_root/build_artifacts/ffmpeg_1703992514465/_build_env/bin/x86_64-conda-linux-gnu-cc --cxx=/home/conda/feedstock_root/build_artifacts/ffmpeg_1703992514465/_build_env/bin/x86_64-conda-linux-gnu-c++ --nm=/home/conda/feedstock_root/build_artifacts/ffmpeg_1703992514465/_build_env/bin/x86_64-conda-linux-gnu-nm --ar=/home/conda/feedstock_root/build_artifacts/ffmpeg_1703992514465/_build_env/bin/x86_64-conda-linux-gnu-ar --disable-doc --disable-openssl --enable-demuxer=dash --enable-hardcoded-tables --enable-libfreetype --enable-libharfbuzz --enable-libfontconfig --enable-libopenh264 --enable-libdav1d --enable-gnutls --enable-libmp3lame --enable-libvpx --enable-libass --enable-pthreads --enable-vaapi --enable-gpl --enable-libx264 --enable-libx265 --enable-libaom --enable-libsvtav1 --enable-libxml2 --enable-pic --enable-shared --disable-static --enable-version3 --enable-zlib --enable-libopus --pkg-config=/home/conda/feedstock_root/build_artifacts/ffmpeg_1703992514465/_build_env/bin/pkg-config\n",
      "  libavutil      58. 29.100 / 58. 29.100\n",
      "  libavcodec     60. 31.102 / 60. 31.102\n",
      "  libavformat    60. 16.100 / 60. 16.100\n",
      "  libavdevice    60.  3.100 / 60.  3.100\n",
      "  libavfilter     9. 12.100 /  9. 12.100\n",
      "  libswscale      7.  5.100 /  7.  5.100\n",
      "  libswresample   4. 12.100 /  4. 12.100\n",
      "  libpostproc    57.  3.100 / 57.  3.100\n",
      "Input #0, concat, from 'frames_Dec/frame_list.txt':\n",
      "  Duration: N/A, start: 0.000000, bitrate: N/A\n",
      "  Stream #0:0: Video: png, rgba(pc, gbr/unknown/unknown), 924x788 [SAR 3937:3937 DAR 231:197], 25 fps, 25 tbr, 25 tbn\n",
      "Stream mapping:\n",
      "  Stream #0:0 -> #0:0 (png (native) -> h264 (libx264))\n",
      "Press [q] to stop, [?] for help\n"
     ]
    },
    {
     "name": "stdout",
     "output_type": "stream",
     "text": [
      "Generating video for Dec\n"
     ]
    },
    {
     "name": "stderr",
     "output_type": "stream",
     "text": [
      "[libx264 @ 0x55e9277f1e80] using SAR=2970/3077\n",
      "[libx264 @ 0x55e9277f1e80] using cpu capabilities: MMX2 SSE2Fast SSSE3 SSE4.2 AVX FMA3 BMI2 AVX2 AVX512\n",
      "[libx264 @ 0x55e9277f1e80] profile High, level 3.1, 4:2:0, 8-bit\n",
      "[libx264 @ 0x55e9277f1e80] 264 - core 164 r3095 baee400 - H.264/MPEG-4 AVC codec - Copyleft 2003-2022 - http://www.videolan.org/x264.html - options: cabac=1 ref=3 deblock=1:0:0 analyse=0x3:0x113 me=hex subme=7 psy=1 psy_rd=1.00:0.00 mixed_ref=1 me_range=16 chroma_me=1 trellis=1 8x8dct=1 cqm=0 deadzone=21,11 fast_pskip=1 chroma_qp_offset=-2 threads=24 lookahead_threads=4 sliced_threads=0 nr=0 decimate=1 interlaced=0 bluray_compat=0 constrained_intra=0 bframes=3 b_pyramid=2 b_adapt=1 b_bias=0 direct=1 weightb=1 open_gop=0 weightp=2 keyint=250 keyint_min=25 scenecut=40 intra_refresh=0 rc_lookahead=40 rc=abr mbtree=1 bitrate=750 ratetol=1.0 qcomp=0.60 qpmin=0 qpmax=69 qpstep=4 ip_ratio=1.40 aq=1:1.00\n",
      "Output #0, mp4, to 'month_Dec.mp4':\n",
      "  Metadata:\n",
      "    encoder         : Lavf60.16.100\n",
      "  Stream #0:0: Video: h264 (avc1 / 0x31637661), yuv420p(tv, progressive), 950x782 [SAR 90321:93575 DAR 231:197], q=2-31, 750 kb/s, 25 fps, 12800 tbn\n",
      "    Metadata:\n",
      "      encoder         : Lavc60.31.102 libx264\n",
      "    Side data:\n",
      "      cpb: bitrate max/min/avg: 0/0/750000 buffer size: 0 vbv_delay: N/A\n",
      "[out#0/mp4 @ 0x55e9277def40] video:1768kB audio:0kB subtitle:0kB other streams:0kB global headers:0kB muxing overhead: 0.253063%\n",
      "frame=  264 fps= 34 q=-1.0 Lsize=    1772kB time=00:00:19.56 bitrate= 742.2kbits/s speed=2.53x    \n",
      "[libx264 @ 0x55e9277f1e80] frame I:2     Avg QP:22.69  size: 39326\n",
      "[libx264 @ 0x55e9277f1e80] frame P:67    Avg QP:24.44  size:  3910\n",
      "[libx264 @ 0x55e9277f1e80] frame B:195   Avg QP:30.03  size:  7533\n",
      "[libx264 @ 0x55e9277f1e80] consecutive B-frames:  1.5%  0.0%  0.0% 98.5%\n",
      "[libx264 @ 0x55e9277f1e80] mb I  I16..4: 12.7% 58.4% 28.9%\n",
      "[libx264 @ 0x55e9277f1e80] mb P  I16..4:  0.7%  1.6%  1.1%  P16..4: 26.5%  0.8%  0.7%  0.0%  0.0%    skip:68.6%\n",
      "[libx264 @ 0x55e9277f1e80] mb B  I16..4:  1.5%  1.4%  1.4%  B16..8:  9.0%  2.3%  1.3%  direct: 4.8%  skip:78.3%  L0:48.7% L1:45.5% BI: 5.8%\n",
      "[libx264 @ 0x55e9277f1e80] final ratefactor: 24.48\n",
      "[libx264 @ 0x55e9277f1e80] 8x8 transform intra:40.0% inter:78.1%\n",
      "[libx264 @ 0x55e9277f1e80] coded y,uvDC,uvAC intra: 45.7% 74.0% 57.7% inter: 6.3% 8.7% 4.6%\n",
      "[libx264 @ 0x55e9277f1e80] i16 v,h,dc,p: 11% 10%  4% 75%\n",
      "[libx264 @ 0x55e9277f1e80] i8 v,h,dc,ddl,ddr,vr,hd,vl,hu: 24% 11% 29%  4%  8%  7%  7%  6%  3%\n",
      "[libx264 @ 0x55e9277f1e80] i4 v,h,dc,ddl,ddr,vr,hd,vl,hu: 23% 16% 16%  7%  9%  9%  7%  7%  5%\n",
      "[libx264 @ 0x55e9277f1e80] i8c dc,h,v,p: 37% 14% 16% 33%\n",
      "[libx264 @ 0x55e9277f1e80] Weighted P-Frames: Y:0.0% UV:0.0%\n",
      "[libx264 @ 0x55e9277f1e80] ref P L0:  7.2%  0.8% 15.8% 76.2%\n",
      "[libx264 @ 0x55e9277f1e80] ref B L0: 81.6% 15.2%  3.2%\n",
      "[libx264 @ 0x55e9277f1e80] ref B L1: 94.3%  5.7%\n",
      "[libx264 @ 0x55e9277f1e80] kb/s:731.12\n"
     ]
    }
   ],
   "source": [
    "for month in MONTH_NAMES:\n",
    "        print(f\"Generating video for {month}\")\n",
    "        frame_list = generate_frame_list(month, events)\n",
    "        cmd = [\n",
    "            \"ffmpeg\", \"-y\", \"-f\", \"concat\", \"-safe\", \"0\",\n",
    "            \"-i\", frame_list,\n",
    "            \"-fps_mode\", \"vfr\",\n",
    "            \"-vf\", \"scale=950:782\",\n",
    "            \"-c:v\", \"libx264\",\n",
    "            \"-pix_fmt\", \"yuv420p\",\n",
    "            \"-b:v\", \"750k\",\n",
    "            f\"month_{month}.mp4\"\n",
    "        ]\n",
    "        subprocess.run(cmd)"
   ]
  },
  {
   "cell_type": "code",
   "execution_count": 7,
   "id": "99e55c09-9407-4633-b108-50aaed8271ab",
   "metadata": {},
   "outputs": [],
   "source": [
    "with open(\"concat_list.txt\", \"w\") as f:\n",
    "    for month in MONTH_NAMES:\n",
    "        f.write(f\"file 'month_{month}.mp4'\\n\")\n"
   ]
  },
  {
   "cell_type": "markdown",
   "id": "21c47464-7b7e-48f2-94d7-56ec06db632d",
   "metadata": {},
   "source": [
    "**Make Full Year Video!**"
   ]
  },
  {
   "cell_type": "code",
   "execution_count": 8,
   "id": "63f61ea1-3e98-4947-b6af-d8c760ab7fd4",
   "metadata": {},
   "outputs": [
    {
     "name": "stderr",
     "output_type": "stream",
     "text": [
      "ffmpeg version 6.1.1 Copyright (c) 2000-2023 the FFmpeg developers\n",
      "  built with gcc 12.3.0 (conda-forge gcc 12.3.0-3)\n",
      "  configuration: --prefix=/home/conda/feedstock_root/build_artifacts/ffmpeg_1703992514465/_h_env_placehold_placehold_placehold_placehold_placehold_placehold_placehold_placehold_placehold_placehold_placehold_placehold_placehold_placehold_placehold_placehold_placehold_placehold_plac --cc=/home/conda/feedstock_root/build_artifacts/ffmpeg_1703992514465/_build_env/bin/x86_64-conda-linux-gnu-cc --cxx=/home/conda/feedstock_root/build_artifacts/ffmpeg_1703992514465/_build_env/bin/x86_64-conda-linux-gnu-c++ --nm=/home/conda/feedstock_root/build_artifacts/ffmpeg_1703992514465/_build_env/bin/x86_64-conda-linux-gnu-nm --ar=/home/conda/feedstock_root/build_artifacts/ffmpeg_1703992514465/_build_env/bin/x86_64-conda-linux-gnu-ar --disable-doc --disable-openssl --enable-demuxer=dash --enable-hardcoded-tables --enable-libfreetype --enable-libharfbuzz --enable-libfontconfig --enable-libopenh264 --enable-libdav1d --enable-gnutls --enable-libmp3lame --enable-libvpx --enable-libass --enable-pthreads --enable-vaapi --enable-gpl --enable-libx264 --enable-libx265 --enable-libaom --enable-libsvtav1 --enable-libxml2 --enable-pic --enable-shared --disable-static --enable-version3 --enable-zlib --enable-libopus --pkg-config=/home/conda/feedstock_root/build_artifacts/ffmpeg_1703992514465/_build_env/bin/pkg-config\n",
      "  libavutil      58. 29.100 / 58. 29.100\n",
      "  libavcodec     60. 31.102 / 60. 31.102\n",
      "  libavformat    60. 16.100 / 60. 16.100\n",
      "  libavdevice    60.  3.100 / 60.  3.100\n",
      "  libavfilter     9. 12.100 /  9. 12.100\n",
      "  libswscale      7.  5.100 /  7.  5.100\n",
      "  libswresample   4. 12.100 /  4. 12.100\n",
      "  libpostproc    57.  3.100 / 57.  3.100\n",
      "[mov,mp4,m4a,3gp,3g2,mj2 @ 0x56239db62740] Auto-inserting h264_mp4toannexb bitstream filter\n",
      "Input #0, concat, from 'concat_list.txt':\n",
      "  Duration: N/A, start: 0.000000, bitrate: 711 kb/s\n",
      "  Stream #0:0(und): Video: h264 (High) (avc1 / 0x31637661), yuv420p(progressive), 950x782 [SAR 2970:3077 DAR 812243:692692], 711 kb/s, SAR 19069:19756 DAR 231:197, 13.36 fps, 25 tbr, 12800 tbn\n",
      "    Metadata:\n",
      "      handler_name    : VideoHandler\n",
      "      vendor_id       : [0][0][0][0]\n",
      "      encoder         : Lavc60.31.102 libx264\n",
      "Output #0, mp4, to 'full_year_video.mp4':\n",
      "  Metadata:\n",
      "    encoder         : Lavf60.16.100\n",
      "  Stream #0:0(und): Video: h264 (High) (avc1 / 0x31637661), yuv420p(progressive), 950x782 [SAR 19069:19756 DAR 231:197], q=2-31, 711 kb/s, 13.36 fps, 25 tbr, 12800 tbn\n",
      "    Metadata:\n",
      "      handler_name    : VideoHandler\n",
      "      vendor_id       : [0][0][0][0]\n",
      "      encoder         : Lavc60.31.102 libx264\n",
      "Stream mapping:\n",
      "  Stream #0:0 -> #0:0 (copy)\n",
      "Press [q] to stop, [?] for help\n",
      "[mov,mp4,m4a,3gp,3g2,mj2 @ 0x7f04f400c140] Auto-inserting h264_mp4toannexb bitstream filter\n",
      "[mov,mp4,m4a,3gp,3g2,mj2 @ 0x7f04f4001b40] Auto-inserting h264_mp4toannexb bitstream filter\n",
      "[mov,mp4,m4a,3gp,3g2,mj2 @ 0x7f04f400b200] Auto-inserting h264_mp4toannexb bitstream filter\n",
      "[mov,mp4,m4a,3gp,3g2,mj2 @ 0x7f04f4153040] Auto-inserting h264_mp4toannexb bitstream filter\n",
      "[mov,mp4,m4a,3gp,3g2,mj2 @ 0x7f04f401b4c0] Auto-inserting h264_mp4toannexb bitstream filter\n",
      "[mov,mp4,m4a,3gp,3g2,mj2 @ 0x7f04f4151c80] Auto-inserting h264_mp4toannexb bitstream filter\n",
      "[mov,mp4,m4a,3gp,3g2,mj2 @ 0x7f04f41949c0] Auto-inserting h264_mp4toannexb bitstream filter\n",
      "[mov,mp4,m4a,3gp,3g2,mj2 @ 0x7f04f4017a80] Auto-inserting h264_mp4toannexb bitstream filter\n",
      "[mov,mp4,m4a,3gp,3g2,mj2 @ 0x7f04f4191e80] Auto-inserting h264_mp4toannexb bitstream filter\n",
      "[mov,mp4,m4a,3gp,3g2,mj2 @ 0x7f04f4150780] Auto-inserting h264_mp4toannexb bitstream filter\n"
     ]
    },
    {
     "name": "stdout",
     "output_type": "stream",
     "text": [
      "Done!\n"
     ]
    },
    {
     "name": "stderr",
     "output_type": "stream",
     "text": [
      "[mov,mp4,m4a,3gp,3g2,mj2 @ 0x7f04f40e6100] Auto-inserting h264_mp4toannexb bitstream filter\n",
      "[out#0/mp4 @ 0x56239db87240] video:19553kB audio:0kB subtitle:0kB other streams:0kB global headers:0kB muxing overhead: 0.214626%\n",
      "size=   19595kB time=00:03:43.12 bitrate= 719.4kbits/s speed= 234x    \n"
     ]
    }
   ],
   "source": [
    "concat_cmd = [\n",
    "    \"ffmpeg\", \"-y\", \"-f\", \"concat\", \"-safe\", \"0\",\n",
    "    \"-i\", \"concat_list.txt\",\n",
    "    \"-c\", \"copy\",\n",
    "    \"full_year_video.mp4\"\n",
    "]\n",
    "\n",
    "subprocess.run(concat_cmd)\n",
    "print(\"Done!\")\n"
   ]
  },
  {
   "cell_type": "markdown",
   "id": "092f73de-d8e6-4a43-aab6-c9e800544d07",
   "metadata": {},
   "source": [
    "---"
   ]
  },
  {
   "cell_type": "markdown",
   "id": "fedd28e5-0aaa-4751-9f9e-9eef186e8f17",
   "metadata": {},
   "source": [
    "# Generate for a Single Day"
   ]
  },
  {
   "cell_type": "code",
   "execution_count": 9,
   "id": "a204235d-6e46-4bce-add1-c5bd35c798cf",
   "metadata": {},
   "outputs": [],
   "source": [
    "def render_day(day, hours=range(0, 24, 3)):\n",
    "    output_dir = f\"frames_test_day_{day}\"\n",
    "    os.makedirs(output_dir, exist_ok=True)\n",
    "    \n",
    "    for hour in hours:\n",
    "        lat, lon, decl = get_subsolar_point(day, hour)\n",
    "        cos_zenith = calculate_zenith_cosine(decl, hour)\n",
    "        \n",
    "        projections = [\n",
    "            ccrs.AzimuthalEquidistant(central_longitude=0, central_latitude=90),\n",
    "            ccrs.AzimuthalEquidistant(central_longitude=0, central_latitude=-90),\n",
    "            ccrs.Mollweide(central_longitude=0)\n",
    "        ]\n",
    "        \n",
    "        fig = plt.figure(figsize=(12, 8))\n",
    "        gs = GridSpec(2, 2, height_ratios=[1.2, 1])\n",
    "        \n",
    "        ax1 = plt.subplot(gs[0, 0], projection=projections[0])\n",
    "        ax2 = plt.subplot(gs[0, 1], projection=projections[1])\n",
    "        ax3 = plt.subplot(gs[1, :], projection=projections[2])\n",
    "        \n",
    "        axes = [ax1, ax2, ax3]\n",
    "        \n",
    "        for i, ax in enumerate(axes):\n",
    "            ax.set_global()\n",
    "            ax.coastlines()\n",
    "            ax.add_feature(cfeature.BORDERS, linewidth=0.5)\n",
    "            ax.gridlines(draw_labels=False, linewidth=0.3, linestyle='--')\n",
    "            mesh = ax.pcolormesh(\n",
    "                LONS, LATS, SolarConstant*cos_zenith, transform=ccrs.PlateCarree(),\n",
    "                cmap='inferno', shading='auto', vmin=0, vmax=1\n",
    "            )\n",
    "            ax.plot(lon, lat, 'o', color='yellow', transform=ccrs.PlateCarree(), zorder=5)\n",
    "            ax.set_title(f\"{titles_text[i]}\", fontsize=10)\n",
    "        \n",
    "        # Adjust layout and add colorbar & title as before\n",
    "        fig.subplots_adjust(top=0.88, bottom=0.12)\n",
    "        cb_ax = fig.add_axes([0.125, 0.08, 0.75, 0.03])\n",
    "        cb = plt.colorbar(mesh, cax=cb_ax, orientation='horizontal')\n",
    "        ticks = [0, 200, 400, 600, 800, 1000, 1200]\n",
    "        cb.set_ticks(ticks)\n",
    "        cb.set_label(\"Estimated Solar Irradiance (W/m$^{2}$)\")\n",
    "\n",
    "        if day in events:\n",
    "            fig.suptitle(f\"Sunlight Distribution on Day {day} — {hour:02d}:00 UTC\\n\" + events[day],\n",
    "                fontsize=14, ha='center', y=.95)\n",
    "        else:\n",
    "            fig.suptitle(f\"Sunlight Distribution on Day {day} — {hour:02d}:00 UTC\",\n",
    "                         fontsize=14, ha='center', y=.95)\n",
    "            \n",
    "        \n",
    "        filename = os.path.join(output_dir, f\"frame_{day:03d}_{hour:02d}.png\")\n",
    "        fig.savefig(filename, dpi=100, bbox_inches='tight')\n",
    "        plt.close(fig)\n",
    "    print(f\"Rendered day {day} frames in {output_dir}\")"
   ]
  },
  {
   "cell_type": "code",
   "execution_count": null,
   "id": "97e2bc5e-f5b3-43a4-a604-3000ecee3fa9",
   "metadata": {},
   "outputs": [],
   "source": []
  }
 ],
 "metadata": {
  "kernelspec": {
   "display_name": "Air Quality Environment",
   "language": "python",
   "name": "aq"
  },
  "language_info": {
   "codemirror_mode": {
    "name": "ipython",
    "version": 3
   },
   "file_extension": ".py",
   "mimetype": "text/x-python",
   "name": "python",
   "nbconvert_exporter": "python",
   "pygments_lexer": "ipython3",
   "version": "3.12.1"
  }
 },
 "nbformat": 4,
 "nbformat_minor": 5
}
